<?xml version="1.0" standalone="no"?>
<!DOCTYPE svg PUBLIC "-//W3C//DTD SVG 1.1//EN" "http://www.w3.org/Graphics/SVG/1.1/DTD/svg11.dtd" >
<svg xmlns="http://www.w3.org/2000/svg">
<metadata>
<json>
<![CDATA[
{
	"fontFamily": "ftsearch",
	"majorVersion": 1,
	"minorVersion": 0,
	"description": "Font generated by IcoMoon.",
	"version": "Version 1.0",
	"fontId": "ftsearch",
	"psName": "ftsearch",
	"subFamily": "Regular",
	"fullName": "ftsearch"
}
]]>
</json>
</metadata>
<defs>
<font id="ftsearch" horiz-adv-x="1024">
<font-face units-per-em="1024" ascent="960" descent="-64" />
<missing-glyph horiz-adv-x="1024" />
<glyph unicode="&#x20;" horiz-adv-x="512" d="" />
<glyph unicode="&#xe900;" glyph-name="indeterminate_check_box" data-tags="indeterminate_check_box" d="M726 384.667v84h-428v-84h428zM810 810.667q34 0 60-26t26-60v-596q0-34-26-60t-60-26h-596q-34 0-60 26t-26 60v596q0 34 26 60t60 26h596z" />
<glyph unicode="&#xe901;" glyph-name="check_box_outline_blank" data-tags="check_box_outline_blank" d="M810 810.667q34 0 60-26t26-60v-596q0-34-26-60t-60-26h-596q-34 0-60 26t-26 60v596q0 34 26 60t60 26h596zM810 724.667h-596v-596h596v596z" />
<glyph unicode="&#xe902;" glyph-name="check_box" data-tags="check_box" d="M426 212.667l384 384-60 62-324-324-152 152-60-60zM810 810.667q36 0 61-25t25-61v-596q0-36-25-61t-61-25h-596q-36 0-61 25t-25 61v596q0 36 25 61t61 25h596z" />
<glyph unicode="&#xe903;" glyph-name="chevron-thin-up" data-tags="chevron-thin-up" d="M132.198 261.581c-13.926-13.722-36.301-13.722-50.125 0s-13.875 35.891 0 49.613l404.89 400.896c13.824 13.722 36.198 13.722 50.125 0l404.89-400.896c13.824-13.722 13.824-35.891 0-49.613-13.875-13.722-36.301-13.722-50.074 0l-379.904 365.619-379.802-365.619z" />
<glyph unicode="&#xe904;" glyph-name="chevron-thin-down" data-tags="chevron-thin-down" d="M891.802 660.019c13.926 13.722 36.301 13.722 50.125 0s13.875-35.891 0-49.613l-404.89-400.896c-13.824-13.722-36.198-13.722-50.125 0l-404.89 400.896c-13.824 13.722-13.824 35.891 0 49.613 13.875 13.722 36.301 13.722 50.125 0l379.853-365.619 379.802 365.619z" />
<glyph unicode="&#xe905;" glyph-name="order_none" data-tags="order_none" d="M833.772 357.087c30.343 0 37.228-17.159 15.479-38.327v0l-302.643-294.545c-22.001-21.412-57.012-21.167-78.761 0v0l-302.643 294.545c-22.001 21.412-14.819 38.327 15.479 38.327v0zM760.82 293.627h-502.559l251.095-216.374 251.464 216.374zM546.608 817.959l302.643-294.545c21.749-21.167 14.864-38.327-15.479-38.327h-653.089c-30.298 0-37.48 16.914-15.479 38.327l302.643 294.545c21.749 21.167 56.76 21.412 78.761 0zM511.953 767.645l-251.095-216.374h502.559l-251.464 216.374z" />
<glyph unicode="&#xe906;" glyph-name="order_up" data-tags="order_up" d="M833.772 357.087c30.343 0 37.228-17.159 15.479-38.327v0l-302.643-294.545c-22.001-21.412-57.012-21.167-78.761 0v0l-302.643 294.545c-22.001 21.412-14.819 38.327 15.479 38.327v0zM760.82 293.627h-502.559l251.095-216.374 251.464 216.374zM546.608 817.959l302.643-294.545c21.749-21.167 14.864-38.327-15.479-38.327h-653.089c-30.298 0-37.48 16.914-15.479 38.327l302.643 294.545c21.749 21.167 56.76 21.412 78.761 0z" />
<glyph unicode="&#xe907;" glyph-name="order_down" data-tags="order_down" d="M833.772 357.087c30.343 0 37.228-17.159 15.479-38.327v0l-302.643-294.545c-22.001-21.412-57.012-21.167-78.761 0v0l-302.643 294.545c-22.001 21.412-14.819 38.327 15.479 38.327v0zM546.608 817.959l302.643-294.545c21.749-21.167 14.864-38.327-15.479-38.327h-653.089c-30.298 0-37.48 16.914-15.479 38.327l302.643 294.545c21.749 21.167 56.76 21.412 78.761 0zM512 765.3l-251.095-216.374h502.559l-251.464 216.374z" />
<glyph unicode="&#xe908;" glyph-name="dump" data-tags="dump" d="M315.392 869.888c-57.344-26.624-112.64-61.44-122.88-75.776-12.288-20.48-20.48-10.24-28.672 32.768-6.144 36.864-22.528 61.44-40.96 61.44-22.528 0-32.768-30.72-36.864-129.024l-6.144-129.024 129.024 6.144c96.256 4.096 129.024 14.336 129.024 36.864 0 16.384-22.528 34.816-51.2 40.96l-51.2 12.288 71.68 45.056c184.32 114.688 403.456 65.536 526.336-116.736 227.328-337.92-190.464-757.76-526.336-528.384-94.208 63.488-145.408 137.216-174.080 253.952-14.336 57.344-36.864 98.304-53.248 98.304-73.728 0-22.528-219.136 79.872-342.016 71.68-83.968 237.568-159.744 352.256-159.744 106.496 0 274.432 71.68 342.016 145.408 69.632 75.776 129.024 225.28 129.024 325.632 0 106.496-71.68 274.432-145.408 342.016-75.776 69.632-225.28 129.024-325.632 129.024-55.296 0-135.168-20.48-196.608-49.152zM413.696 544.256c-57.344-61.44-57.344-139.264 2.048-194.56 61.44-57.344 139.264-57.344 194.56 2.048 57.344 61.44 57.344 139.264-2.048 194.56-61.44 57.344-139.264 57.344-194.56-2.048zM563.2 448c0-36.864-12.288-53.248-47.104-57.344-26.624-4.096-51.2 6.144-57.344 24.576-20.48 53.248 8.192 98.304 57.344 90.112 34.816-4.096 47.104-20.48 47.104-57.344z" />
<glyph unicode="&#xe913;" glyph-name="close" data-tags="close" d="M754.865 786.865c24.928 24.928 65.494 24.776 90.324-0.054l5.622-5.622c24.957-24.957 25.077-65.301 0.054-90.324l-581.729-581.729c-24.928-24.928-65.494-24.776-90.324 0.054l-5.622 5.622c-24.957 24.957-25.077 65.301-0.054 90.324l581.729 581.729zM173.135 690.865c-24.928 24.928-24.776 65.494 0.054 90.324l5.622 5.622c24.957 24.957 65.301 25.077 90.324 0.054l581.729-581.729c24.928-24.928 24.776-65.494-0.054-90.324l-5.622-5.622c-24.957-24.957-65.301-25.077-90.324-0.054l-581.729 581.729z" />
<glyph unicode="&#xe922;" glyph-name="log" data-tags="log" d="M864 960h-768c-52.8 0-96-43.2-96-96v-832c0-52.8 43.2-96 96-96h768c52.8 0 96 43.2 96 96v832c0 52.8-43.2 96-96 96zM832 64h-704v768h704v-768zM256 512h448v-64h-448zM256 384h448v-64h-448zM256 256h448v-64h-448zM256 640h448v-64h-448z" />
<glyph unicode="&#xe944;" glyph-name="add" data-tags="add" d="M512.964 930.259c35.295 0 63.907-28.442 63.907-63.831l-0.018-343.401 343.481-0.062c35.253 0 63.831-28.792 63.831-63.907v-7.951c0-35.295-28.442-63.907-63.831-63.907l-343.481 0.018 0.018-343.481c0-35.253-28.792-63.831-63.907-63.831h-7.951c-35.295 0-63.907 28.442-63.907 63.831l-0.062 343.481-343.401-0.018c-35.253 0-63.831 28.792-63.831 63.907v7.951c0 35.295 28.442 63.907 63.831 63.907l343.401 0.062 0.062 343.401c0 35.253 28.792 63.831 63.907 63.831h7.951z" />
<glyph unicode="&#xe965;" glyph-name="radio" data-tags="radio" d="M512 960c282.77 0 512-229.23 512-512s-229.23-512-512-512c-282.77 0-512 229.23-512 512s229.23 512 512 512zM520.533 652.8c-117.821 0-213.333-95.513-213.333-213.333s95.513-213.333 213.333-213.333c117.821 0 213.333 95.513 213.333 213.333s-95.513 213.333-213.333 213.333z" />
<glyph unicode="&#xe967;" glyph-name="checkbox" data-tags="checkbox" d="M508.569 960c70.279 0 136.192-13.33 197.776-40.044s115.425-63.057 161.469-109.029c46.044-45.99 82.423-99.885 109.155-161.684 26.768-61.871 40.152-127.874 40.098-198.081 0-70.225-13.33-136.102-40.098-197.56-26.732-61.53-63.165-115.317-109.155-161.289-46.044-45.936-99.885-82.315-161.469-109.047-61.584-26.714-127.497-40.044-197.776-40.044-70.351 0-136.282 13.33-197.848 40.044-61.584 26.732-115.425 63.111-161.415 109.047-46.044 45.972-82.423 99.759-109.191 161.289-26.786 61.458-40.116 127.335-40.116 197.56 0 70.207 13.33 136.21 40.116 198.081 26.768 61.799 63.147 115.694 109.191 161.684 46.044 45.972 99.831 82.315 161.415 109.029 61.566 26.714 127.497 40.044 197.848 40.044zM847.7 679.262c-20.132 14.951-48.488 13.157-66.698-5.053v0l-344.073-344.033-127.311 127.298c-18.256 18.256-46.761 19.969-66.815 5.107l-5.744-4.956-4.987-5.776c-14.945-20.138-13.115-48.53 5.138-66.783v0l153.564-153.564c1.993-1.993 4.109-3.789 6.322-5.388l3.83-4.388 5.775-4.988c20.132-14.951 48.488-13.157 66.698 5.053v0l380.010 380.010c20.163 20.163 20.060 52.478 0.065 72.473v0z" />
<glyph unicode="&#xe987;" glyph-name="cross" data-tags="cross" d="M173.277 878.128l0.207-0.207 337.818-339.36 337.881 339.36c25.086 24.971 65.329 24.879 90.093 0v0c24.959-25.074 24.959-65.436 0.104-90.405v0l-337.966-339.515 337.966-339.516c24.855-24.969 24.855-65.331 0-90.301l-0.104-0.104c-24.764-24.879-65.007-24.971-89.886-0.207l-0.207 0.207-337.881 339.426-337.818-339.426c-25.086-24.971-65.329-24.879-90.093 0v0c-24.959 25.074-24.959 65.436-0.104 90.405v0l337.903 339.516-337.903 339.515c-24.855 24.969-24.855 65.331 0 90.301l0.104 0.104c24.764 24.879 65.007 24.971 89.886 0.207z" />
<glyph unicode="&#xe98b;" glyph-name="filter" data-tags="filter" d="M889.263 960h-754.526c-40.085 0-70.737-31.695-70.737-73.143v-43.886c0-19.505 7.074-36.571 18.862-48.762l311.242-297.447c14.147-14.629 23.58-34.134 23.58-53.639v-363.275c0-24.382 11.789-48.762 33.010-60.953l120.253-75.581c2.359-7.314 7.074-7.314 11.79-7.314 11.79 0 23.579 9.752 23.579 24.381v482.743c0 19.505 9.432 39.010 23.58 53.639l311.242 297.447c11.789 14.629 18.862 31.696 18.862 48.762v43.886c0 41.448-30.652 73.143-70.737 73.143z" />
<glyph unicode="&#xe994;" glyph-name="search" data-tags="search" d="M64.009 536.539c0 197.559 157.965 358.327 352.040 358.327 194.147 0 352.040-160.768 352.040-358.327 0-197.614-157.894-358.309-352.040-358.309-194.075 0-352.040 160.695-352.040 358.309zM992.939 47.031l-229.969 239.616c-2.246 2.359-5.12 3.383-7.635 5.339 48.2 69.083 76.764 153.326 76.764 244.553 0 233.819-186.26 423.461-416.049 423.461-229.771 0-416.049-189.641-416.049-423.461 0-233.856 186.278-423.461 416.049-423.461 95.016 0 182.272 32.713 252.281 87.278 1.258-1.518 1.761-3.346 3.072-4.773l229.951-239.653c12.504-13.038 29.139-19.584 45.757-19.584 16.132 0 32.337 6.181 44.769 18.56 25.259 25.070 25.762 66.359 1.060 92.123z" />
<glyph unicode="&#xe99d;" glyph-name="edit2" data-tags="edit2" horiz-adv-x="896" d="M837.778 806.966c27.52 29.461-14.766 76.389-14.766 76.389s-23.96 31.661-68.505 64.229c-44.588 32.551-78.902 0-78.902 0l-75.403-75.429 153.162-152.59c0 0 64.568 65.118 84.414 87.402v0zM717.281 691.738l-146.297 150.816-424.043-418.343 152.045-157.681 418.295 425.208zM262.396 245.983l-141.707 139.383-89.138-237.716 230.845 98.333zM89.696 33.739h731.93c26.51 0 48-21.49 48-48s-21.49-48-48-48h-731.93c-26.51 0-48 21.49-48 48s21.49 48 48 48z" />
<glyph unicode="&#xe9af;" glyph-name="create" data-tags="create" horiz-adv-x="1088" d="M558.347 960c282.77 0 512-229.23 512-512s-229.23-512-512-512c-282.77 0-512 229.23-512 512s229.23 512 512 512zM545.547 832l-6.461-0.402c-25.375-3.181-44.739-24.868-44.739-51.149v0-255.65h-255.65c-26.32 0-47.974-19.532-51.15-44.778l-0.401-6.422 0.402-6.461c3.181-25.375 24.868-44.739 51.149-44.739v0h255.65v-255.65c0-26.32 19.532-47.974 44.778-51.15l6.422-0.401 6.461 0.402c25.375 3.181 44.739 24.868 44.739 51.149v0 255.65h255.65c26.32 0 47.974 19.532 51.15 44.778l0.401 6.422-0.402 6.461c-3.181 25.375-24.868 44.739-51.149 44.739v0l-255.65 0.064v255.586c0 26.32-19.532 47.974-44.778 51.15l-6.422 0.401z" />
<glyph unicode="&#xe9b0;" glyph-name="delete" data-tags="delete" horiz-adv-x="960" d="M847.282 880.050v0c33.749 0 61.136-29.53 61.136-63.449v-64.266h-896.285v64.266c0 33.919 27.353 63.449 61.136 63.449h264.752c0 0 18.269 79.95 40.757 79.95h162.961c22.488 0 40.723-79.95 40.723-79.95h264.82zM252.015 63.681v528.721h79.95v-528.721h-79.95zM411.948 63.681v528.721h96.654v-528.721h-96.654zM588.586 63.681v528.721h79.984v-528.721h-79.984zM134.336 61.742c0-67.872 54.74-125.742 122.204-125.742h407.402c67.532 0 122.238 57.87 122.238 125.742l81.446 658.376h-814.77l81.48-658.376z" />
<glyph unicode="&#xe9b2;" glyph-name="triangle_down" data-tags="triangle_down" d="M460.991 238.9c25.161-24.488 66.413-24.042 91.116 0l366.569 356.761c25.161 24.488 17.159 44.339-18.809 44.339h-786.635c-35.549 0-43.512-20.297-18.809-44.339l366.569-356.761z" />
<glyph unicode="&#xe9b4;" glyph-name="triangle_up" data-tags="triangle_up" d="M563.009 657.1c-25.161 24.488-66.413 24.042-91.116 0l-366.569-356.761c-25.161-24.488-17.159-44.339 18.809-44.339h786.635c35.549 0 43.512 20.297 18.809 44.339l-366.569 356.761z" />
<glyph unicode="&#xe9ba;" glyph-name="config" data-tags="config" d="M869.939 660.555c19.657-35.014 54.978-55.899 94.291-55.899 32.864 0 59.769-27.519 59.769-61.55v-190.365c0-33.785-26.905-61.428-59.769-61.428-39.436 0-74.635-20.947-94.291-56.022-19.645-34.721-19.645-77.201 0-111.921 16.5-29.329 6.803-66.456-21.93-83.972l-160.020-95.090c-13.729-8.085-30.147-10.271-45.513-6.059s-28.375 14.463-36.064 28.419c-18.758 34.581-54.951 56.109-94.291 56.084-39.314 0-74.635-20.886-94.291-55.961-10.431-18.914-30.308-30.675-51.907-30.714-10.449 0.035-20.697 2.879-29.669 8.231l-160.265 95.090c-13.879 8.231-23.913 21.648-27.888 37.287-4.216 15.741-2.075 32.508 5.959 46.685 19.645 34.721 19.645 77.201 0 111.921-18.81 34.515-54.984 55.983-94.291 55.961-32.864 0-59.769 27.642-59.769 61.489v190.426c0 33.785 26.905 61.428 59.769 61.428 39.314 0 74.635 20.947 94.291 56.022 19.645 34.721 19.645 77.201 0 111.921-16.538 29.29-6.861 66.418 21.868 83.911l160.204 95.152c13.732 8.129 30.179 10.325 45.563 6.085s28.383-14.552 36.013-28.567c18.78-34.559 54.96-56.076 94.291-56.076s75.513 21.517 94.291 56.076c7.619 14.058 20.633 24.41 36.044 28.673s31.894 2.073 45.655-6.068l160.020-95.213c28.564-16.954 38.392-54.609 21.93-83.972-19.645-34.721-19.645-77.201 0-111.921v-0.062zM512 161.393c158.223 0.203 286.447 128.399 286.684 286.623-0.304 158.205-128.479 286.379-286.684 286.684-158.218-0.271-286.413-128.465-286.684-286.684 0.271-158.218 128.465-286.413 286.684-286.684v0.062zM512 291.559c-86.353 0.135-156.321 70.104-156.457 156.457 0.135 86.353 70.104 156.321 156.457 156.457 86.353-0.135 156.321-70.104 156.457-156.457-0.102-86.366-70.090-156.355-156.457-156.457v0z" />
<glyph unicode="&#xe9bc;" glyph-name="download" data-tags="download" d="M817.975 580.050h-148.005v315.95h-315.94v-315.95h-148.005c-14.138 0-25.6-11.462-25.6-25.6 0-6.79 2.697-13.301 7.498-18.102l305.974-305.966c9.998-9.997 26.207-9.997 36.204 0l305.974 305.966c9.998 9.997 9.998 26.206 0 36.204-4.801 4.801-11.313 7.498-18.102 7.498zM197.29 0h629.42c29.31 0 53.070 23.76 53.070 53.070s-23.76 53.070-53.070 53.070h-629.42c-29.31 0-53.070-23.76-53.070-53.070s23.76-53.070 53.070-53.070z" />
<glyph unicode="&#xe9bd;" glyph-name="order" data-tags="order" d="M833.772 357.087c30.343 0 37.228-17.159 15.479-38.327v0l-302.643-294.545c-22.001-21.412-57.012-21.167-78.761 0v0l-302.643 294.545c-22.001 21.412-14.819 38.327 15.479 38.327v0zM546.608 817.959l302.643-294.545c21.749-21.167 14.864-38.327-15.479-38.327h-653.089c-30.298 0-37.48 16.914-15.479 38.327l302.643 294.545c21.749 21.167 56.76 21.412 78.761 0z" />
<glyph unicode="&#xe9c1;" glyph-name="list3" data-tags="list3" horiz-adv-x="1088" d="M977.709 128c35.346 0 64-28.654 64-64s-28.654-64-64-64h-896c-35.346 0-64 28.654-64 64s28.654 64 64 64h896zM977.709 512c35.346 0 64-28.654 64-64s-28.654-64-64-64h-896c-35.346 0-64 28.654-64 64s28.654 64 64 64h896zM977.709 896c35.346 0 64-28.654 64-64s-28.654-64-64-64h-896c-35.346 0-64 28.654-64 64s28.654 64 64 64h896z" />
<glyph unicode="&#xe9c4;" glyph-name="list4" data-tags="list4" d="M960 128c35.346 0 64-28.654 64-64s-28.654-64-64-64h-640c-35.346 0-64 28.654-64 64s28.654 64 64 64h640zM64 128c35.346 0 64-28.654 64-64s-28.654-64-64-64c-35.346 0-64 28.654-64 64s28.654 64 64 64zM960 512c35.346 0 64-28.654 64-64s-28.654-64-64-64h-640c-35.346 0-64 28.654-64 64s28.654 64 64 64h640zM64 512c35.346 0 64-28.654 64-64s-28.654-64-64-64c-35.346 0-64 28.654-64 64s28.654 64 64 64zM960 896c35.346 0 64-28.654 64-64s-28.654-64-64-64h-640c-35.346 0-64 28.654-64 64s28.654 64 64 64h640zM64 896c35.346 0 64-28.654 64-64s-28.654-64-64-64c-35.346 0-64 28.654-64 64s28.654 64 64 64z" />
</font>
</defs>
</svg>
