<?xml version="1.0" standalone="no"?>
<!DOCTYPE svg PUBLIC "-//W3C//DTD SVG 1.1//EN" "http://www.w3.org/Graphics/SVG/1.1/DTD/svg11.dtd" >
<svg xmlns="http://www.w3.org/2000/svg">
  <metadata>Created by iconfont</metadata>
  <defs>
  <font id="o2WorkApplication" horiz-adv-x="1024">
    <font-face
      font-family="o2WorkApplication"
      font-weight="400"
      font-stretch="normal"
      units-per-em="1024"
      ascent="896"
      descent="-128"
    />
      <missing-glyph />
      
      <glyph glyph-name="delete" unicode="&#58905;" d="M799.2 21.600000000000023c0-34.4-28-62.40000001-62.4-62.4H287.2c-34.4 0-62.40000001 28-62.4 62.4V684h574.4v-662.4zM349.60000001 796c0 7.2 5.6 12.8 12.79999999 12.8h300c7.2 0 12.8-5.6 12.8-12.8v-37.6H349.60000001V796z m636.79999999-37.6H749.6V796c0 48-39.2 87.2-87.2 87.2h-300c-48 0-87.2-39.2-87.2-87.2v-37.6H37.6C16.8 758.4 0 741.6 0 720.8s16.8-37.6 37.6-37.59999999h112v-661.60000001c0-76 61.6-137.6 137.6-137.6h449.6c76 0 137.6 61.6 137.6 137.6V684h112c20.80000001 0 37.6 16.8 37.6 37.60000001s-16.8 36.80000001-37.6 36.79999999zM512 71.99999998999999c20.80000001 0 37.6 16.8 37.6 37.60000001v400c0 20.80000001-16.8 37.6-37.6 37.6s-37.6-16.8-37.6-37.6v-400c0-20.80000001 16.8-37.6 37.6-37.59999999m-175.2 0c20.80000001 0 37.6 16.8 37.6 37.59999999v400c0 20.80000001-16.8 37.6-37.6 37.6s-37.6-16.8-37.59999999-37.6v-400c0.8-20.80000001 17.60000001-37.6 37.59999999-37.59999999m350.4 0c20.80000001 0 37.6 16.8 37.60000002 37.59999999v400c0 20.80000001-16.8 37.6-37.60000002 37.6s-37.6-16.8-37.6-37.6v-400c0-20.80000001 16.8-37.6 37.6-37.59999999"  horiz-adv-x="1024" />
      
      <glyph glyph-name="icon__chakan" unicode="&#58889;" d="M942.626133 87.586133c11.0592 27.648 16.7936 57.1392 16.930134 86.903467a239.616 239.616 0 0 1-239.889067 239.274667 239.616 239.616 0 0 1-239.889067-239.274667 239.616 239.616 0 0 1 239.889067-239.342933c58.026667 0 110.592 21.367467 152.029867 55.569066L1012.462933-128l77.4144 91.3408-147.2512 124.245333z m-222.958933-32.768a120.0128 120.0128 0 0 0-106.154667 58.9824 119.466667 119.466667 0 0 0 0 121.173334 120.0128 120.0128 0 0 0 223.368534-60.484267c0-65.058133-52.0192-118.237867-117.213867-119.671467zM419.771733 174.421333a299.485867 299.485867 0 0 0 419.84 273.885867V772.778667c0 66.082133-53.725867 119.671467-119.944533 119.671466H119.944533C53.725867 892.450133 0 838.8608 0 772.778667v-717.960534c0-66.1504 53.725867-119.671467 119.944533-119.671466H541.354667a297.5744 297.5744 0 0 0-121.514667 239.342933zM151.005867 712.977067h385.024c17.134933 0 31.061333-13.448533 31.061333-29.969067a30.5152 30.5152 0 0 0-31.061333-29.9008h-385.024a30.5152 30.5152 0 0 0-31.061334 29.9008c0 16.520533 13.858133 29.969067 31.061334 29.969067z m0-179.541334h260.778666c17.134933 0 31.061333-13.380267 31.061334-29.9008a30.5152 30.5152 0 0 0-31.061334-29.9008h-260.778666a30.5152 30.5152 0 0 0-31.061334 29.9008c0 16.520533 13.858133 29.9008 31.061334 29.9008z m0-239.342933a30.5152 30.5152 0 0 0-31.061334 29.969067c0 16.520533 13.9264 29.9008 31.061334 29.9008h198.656c17.134933 0 31.061333-13.380267 31.061333-29.9008a30.5152 30.5152 0 0 0-31.061333-29.969067h-198.656z"  horiz-adv-x="1092" />
      
      <glyph glyph-name="xuanzhong" unicode="&#58885;" d="M508.557479 895.98848a491.51447 491.51447 0 0 0 197.757775-40.063549 517.754175 517.754175 0 0 0 161.534183-108.990774 515.066206 515.066206 0 0 0 109.118772-161.726181c26.751699-61.823304 40.127549-127.870561 40.127549-198.077771a489.338495 489.338495 0 0 0-40.127549-197.501778 517.114182 517.114182 0 0 0-109.118772-161.278186 518.714164 518.714164 0 0 0-161.470184-109.054773 491.51447 491.51447 0 0 0-197.757775-40.063549 491.51447 491.51447 0 0 0-197.885774 40.063549 517.882174 517.882174 0 0 0-161.406184 108.990774 516.858185 516.858185 0 0 0-109.182771 161.278185A489.082498 489.082498 0 0 0 0.0192 387.194204c0 70.20721 13.31185 136.254467 40.127549 198.077772a515.770198 515.770198 0 0 0 109.182771 161.72618A517.498178 517.498178 0 0 0 310.735704 855.924931 491.51447 491.51447 0 0 0 508.557479 895.98848z m339.196184-280.764841a51.135425 51.135425 0 0 1-66.751249-4.991944L436.942285 266.171566l-127.358568 127.294568a51.327423 51.327423 0 0 1-66.751249 5.119942l-5.759935-4.991944-4.991944-5.759935a51.199424 51.199424 0 0 1 5.119943-66.751249l153.598272-153.598272c1.983978-1.919978 4.095954-3.775958 6.335928-5.37594l3.839957-4.41595 5.759935-4.927945a51.135425 51.135425 0 0 1 66.68725 4.991944l380.027725 380.027725a51.135425 51.135425 0 0 1 0 72.511184z"  horiz-adv-x="1024" />
      
      <glyph glyph-name="right" unicode="&#59267;" d="M677.01333333 390.93333333l-262.4 189.86666667c-5.65333333 4.05333333-13.54666667 0.10666667-13.54666666-6.93333333v-50.02666667c0-10.88 5.22666667-21.22666667 14.08-27.62666667L570.24 384 415.14666667 271.78666667000005c-8.85333333-6.4-14.08-16.64-14.08-27.62666667V194.13333333000003c0-6.93333333 7.89333333-10.98666667 13.54666666-6.93333333l262.4 189.86666667c4.69333333 3.41333333 4.69333333 10.45333333 0 13.86666666zM512 893.72444445C230.51377778 893.72444445 2.27555555 665.48622222 2.27555555 384s228.23822222-509.72444445 509.72444445-509.72444445 509.72444445 228.23822222 509.72444445 509.72444445S793.48622222 893.72444445 512 893.72444445z m0-932.97777778c-233.69955555 0-423.25333333 189.55377778-423.25333333 423.25333333s189.55377778 423.25333333 423.25333333 423.25333333 423.25333333-189.55377778 423.25333333-423.25333333-189.55377778-423.25333333-423.25333333-423.25333333z"  horiz-adv-x="1024" />
      
      <glyph glyph-name="left" unicode="&#59006;" d="M330.666667 384a35.84 35.84 0 0 1 11.52-26.453333l235.52-220.586667a35.84 35.84 0 1 1 49.066666 52.48L419.413333 384l207.36 194.56a35.84 35.84 0 1 1-49.066666 52.48L341.333333 411.733333a35.84 35.84 0 0 1-10.666666-27.733333zM512 896a512 512 0 1 1 512-512A512 512 0 0 1 512 896z m0-72.106667a439.466667 439.466667 0 0 0 170.666667-844.373333A439.466667 439.466667 0 0 0 200.533333 695.466667a438.613333 438.613333 0 0 0 311.04 128z"  horiz-adv-x="1024" />
      
      <glyph glyph-name="add" unicode="&#58896;" d="M558.336 896a512 512 0 1 0 0-1024 512 512 0 0 0 0 1024z m-12.8-128l-6.4-0.384a51.328 51.328 0 0 1-44.8-51.2V460.8H238.72a51.392 51.392 0 0 1-51.2-44.8l-0.384-6.4 0.384-6.464c3.2-25.344 24.896-44.736 51.2-44.736h255.616v-255.68c0-26.24 19.52-48 44.8-51.136l6.4-0.384 6.464 0.384a51.328 51.328 0 0 1 44.8 51.2V358.4h255.616c26.24 0 48 19.52 51.136 44.8l0.384 6.4-0.384 6.464a51.328 51.328 0 0 1-51.2 44.736l-255.616 0.064V716.48a51.392 51.392 0 0 1-44.8 51.136L545.6 768z"  horiz-adv-x="1088" />
      
      <glyph glyph-name="workCompleted" unicode="&#58900;" d="M552.896 896a512 512 0 1 1 0-1024 512 512 0 0 1 0 1024z m226.752-420.16l-243.712-244.288a40.384 40.384 0 0 0-57.536 0l-161.92 162.56a40.64 40.64 0 0 0 57.536 57.408l133.12-133.76 215.04 215.552a40.576 40.576 0 0 0 57.472-57.472z"  horiz-adv-x="1088" />
      
      <glyph glyph-name="serial" unicode="&#58901;" d="M805.632 805.6320000000001a128 128 0 0 0 128-128v-647.488a128 128 0 0 0-128-128H218.368a128 128 0 0 0-128 128V685.184c0 66.56 53.952 120.448 120.448 120.448v-240.896H451.84V805.6320000000001z m-112.896-602.368H331.264a60.224 60.224 0 0 1 0-120.448h361.472a60.224 60.224 0 0 1 0 120.448zM451.776 384H331.264a60.224 60.224 0 0 1 0-120.448H451.84a60.224 60.224 0 0 1 0 120.448zM331.264 865.92c33.28 0 60.288-27.008 60.288-60.288v-120.448a60.224 60.224 0 0 0-120.512 0V805.6320000000001c0 33.28 27.008 60.224 60.224 60.224z"  horiz-adv-x="1024" />
      
      <glyph glyph-name="dict" unicode="&#58902;" d="M119.68 602.048h435.712a138.752 138.752 0 0 1 119.04-64.768c50.624 0 95.04 26.112 119.104 64.768h96.32c32.64 0 59.2 25.6 59.2 57.024 0 31.488-26.496 57.088-59.2 57.088h-84.544c-19.2 51.648-70.4 88.512-130.816 88.512-60.48 0-111.744-36.864-130.88-88.512H119.68c-32.64 0-59.2-25.6-59.2-57.088s26.496-57.024 59.2-57.024z m0-276.352h171.52a138.816 138.816 0 0 1 124.096-73.728c54.272 0 101.184 30.336 124.032 73.728h350.528c32.64 0 59.2 25.6 59.2 57.024 0 31.488-26.496 57.088-59.2 57.088H542.4A139.2 139.2 0 0 1 415.36 519.424c-56.768 0-105.536-32.64-127.104-79.616H119.68c-32.64 0-59.2-25.6-59.2-57.088s26.496-57.024 59.2-57.024zM896 163.45600000000002h-96.256a139.968 139.968 0 0 1-125.888 76.672c-55.552 0-103.68-31.488-125.888-76.672H125.888c-32.704 0-59.264-25.6-59.264-57.088s26.56-56.96 59.264-56.96H549.12a139.968 139.968 0 0 1 125.888-76.736c55.552 0 103.68 31.488 125.888 76.672h96.256c32.704 0 59.264 25.6 59.264 57.024a60.16 60.16 0 0 1-60.48 57.088z"  horiz-adv-x="1024" />
      
      <glyph glyph-name="snap" unicode="&#58903;" d="M832 832a128 128 0 0 0 128-128v-640a128 128 0 0 0-128-128H192a128 128 0 0 0-128 128V704a128 128 0 0 0 128 128h640zM417.92 665.088H273.28v-229.76h-33.28v-55.68h32.64c-1.792-96.896-16.256-177.536-43.52-241.92l43.52-38.4c31.552 72.96 48.64 166.4 51.2 280.32h42.88v-209.92c0-14.912-6.912-22.4-20.48-22.4-6.4 0-16.896 0.832-31.36 2.56l14.08-50.56h33.28c37.12 0 55.68 17.728 55.68 53.12v227.2h37.12v-0.64c-0.512-96.448-9.856-177.088-28.16-241.92l42.24-37.76c23.04 71.68 35.2 165.12 36.48 280.32h42.24v-211.84c0-14.08-5.376-21.12-16-21.12-6.016 0-16.256 0.832-30.72 2.56l13.44-50.56h33.28c34.56 0 51.84 17.024 51.84 51.2v229.76h29.44v55.68h-29.44v229.76H455.04v-229.76h-37.12v229.76z m382.72 19.2h-55.04v-503.04c0-19.648-8.512-29.44-25.6-29.44-20.096 0-44.416 1.088-72.96 3.2l12.16-53.76h80c40.96 0 61.44 22.144 61.44 66.56v516.48z m-102.4-54.4h-53.12v-394.88h53.12v394.88z m-331.52-16.64v-177.92h-42.24v177.92h42.24z m181.12 0v-177.92H505.6v177.92h42.24z"  horiz-adv-x="1024" />
      
      <glyph glyph-name="work" unicode="&#58904;" d="M673.536-71.93600000000004h-320c-15.488 0-28.16 28.8-28.16 64s12.672 64 28.16 64h320c15.488 0 28.16-28.8 28.16-64s-12.672-64-28.16-64M896 768a128 128 0 0 0 128-128v-384a128 128 0 0 0-128-128H128a128 128 0 0 0-128 128V640a128 128 0 0 0 128 128h768zM402.496 575.168l-72.64-39.552-72.576-39.808 66.56-9.408c-5.056-22.4-7.104-45.248-6.144-68.032 5.504-102.144 113.728-163.2 215.296-163.2 14.848 0 29.76 1.472 44.288 4.416-78.848 27.008-157.696 96.448-155.904 177.344 0.192 9.728 1.28 19.456 3.392 29.056l85.12-10.176-54.016 59.776-53.376 59.584z m95.68 64a211.328 211.328 0 0 1-48.896-5.504c78.016-25.152 157.248-93.632 157.888-175.68 0-9.792-0.832-19.648-2.432-29.312l-83.712 8.064 54.144-58.752 54.08-58.752 70.016 41.6 70.016 41.728L704 410.432c4.224 22.72 5.632 45.824 4.16 68.8-7.936 100.16-113.088 160-210.048 160z"  horiz-adv-x="1024" />
      
      <glyph glyph-name="icon_liebiao1" unicode="&#58894;" d="M977.728 64a64 64 0 0 0 0-128h-896a64 64 0 0 0 0 128h896z m0 384a64 64 0 0 0 0-128h-896a64 64 0 1 0 0 128h896z m0 384a64 64 0 0 0 0-128h-896a64 64 0 1 0 0 128h896z"  horiz-adv-x="1088" />
      
      <glyph glyph-name="taskDone" unicode="&#58895;" d="M844.544 510.464c20.224 0 36.544-16.704 36.544-36.096a36.096 36.096 0 0 0-35.52-36.16H523.904c-17.856 30.72-42.88 54.208-71.424 72.32h392.064z m-201.6-481.856c10.112 23.488 16.832 46.976 16.832 72.32h232.704c20.032 0 36.288-16.768 36.288-36.16a36.16 36.16 0 0 0-36.224-36.16h-249.6z m16.832 216.832a194.432 194.432 0 0 1-16.768 72.32h249.6c19.904 0 36.16-16.768 36.16-36.16 0-19.968-16-36.16-36.288-36.16h-232.704zM414.336 761.088c9.6-9.6 14.336-20.928 14.336-33.728 0-14.464-4.8-25.728-14.336-33.728a45.44 45.44 0 0 0-33.28-14.464 46.4 46.4 0 0 0-47.68 48.192c0 12.8 4.8 24.064 12.736 33.728a46.4 46.4 0 0 0 34.88 14.464 45.44 45.44 0 0 0 33.344-14.464z m38.144-45.824c0-19.904 16.256-36.096 36.48-36.096h355.584a36.736 36.736 0 0 1 36.544 36.096 36.288 36.288 0 0 1-36.48 36.16H488.96a36.736 36.736 0 0 1-36.544-36.16zM450.816 896h376.192L1024 695.808v-550.912a212.672 212.672 0 0 0-212.672-212.672H417.472c86.528 138.432 114.24 255.872 83.2 352.192C469.44 380.79999999999995 381.952 448.64 238.08 487.808V683.328A212.672 212.672 0 0 0 450.816 896zM227.136 414.08c7.232 0 14.4 0 23.424-1.792 50.496-3.648 95.552-25.536 135.232-65.664 10.816-10.88 21.632-23.68 30.592-36.48 23.488-36.48 36.096-78.4 36.096-124.032 0-47.36-12.608-89.344-36.096-125.824-8.96-12.8-19.84-23.68-30.592-36.48-45.12-43.776-97.344-67.456-158.72-67.456-16.192 0-30.592 1.792-44.992 5.44-43.264 7.296-82.944 29.184-115.392 62.08l-5.44 5.44C21.568 73.08799999999997 0 124.096 0 186.11199999999997c0 60.16 19.84 111.296 61.248 155.072l5.44 5.44 10.88 10.944c7.168 7.296 14.4 12.8 21.568 18.24a220.992 220.992 0 0 0 128 38.336z m40.064-173.568L188.48 134.39999999999998l-33.536 18.88a32 32 0 0 1-31.104-0.64l-2.304-1.536-1.344-2.88a46.912 46.912 0 0 1 18.816-57.984l8.448-5.376c12.288-7.68 34.24-14.08 49.152-14.08h2.688a57.92 57.92 0 0 1 42.688 22.144l81.664 114.752a23.936 23.936 0 0 1-7.296 35.072l-10.56 5.888a31.168 31.168 0 0 1-38.592-8.064z"  horiz-adv-x="1024" />
      
      <glyph glyph-name="task" unicode="&#58898;" d="M699.648 90.49599999999998s-149.632-3.072-67.584 163.84c71.68 81.856 165.504 97.28 236.48 62.976V430.016c0 54.144-43.84 98.048-98.048 98.048h-153.728c-117.568 0-117.568 82.432-117.568 109.76V773.824c0 54.016-44.16 97.792-96.96 97.792H238.784c-116.224 0.96-150.4-96.512-150.4-123.84v-686.272c0-27.328 19.264-138.88 141.632-140.736h562.176c-20.544 0-34.944 0.192-34.944 0.192s-45.44 7.232-54.848 52.096l-2.752 117.44zM795.392-54.847999999999956m-64 0a64 64 0 1 1 128 0 64 64 0 1 1-128 0ZM844.48 263.168c-85.632 63.36-158.976-21.76-164.8-28.928-5.76-7.232-31.936-48.128-30.464-81.856 1.408-33.728 50.816-61.76 79.104 0 28.352 61.76 83.52 37.696 71.872-17.664 0 0-5.76-19.264-23.936-28.16-18.176-15.232-30.528-20.032-34.112-88.32h75.136s3.968 34.56 34.496 50.624c30.464 16 78.4 130.88-7.296 194.304M819.776 579.072L551.616 871.616v-196.096c-1.088-74.432 27.968-96.448 94.592-96.448h173.568z"  horiz-adv-x="1024" />
      
      <glyph glyph-name="read" unicode="&#58883;" d="M651.648 896l279.232-279.296v-651.584c0-38.08-67.84-93.12-93.056-93.12H250.176c-57.088 0-157.056 60.416-157.056 113.088V772.928C93.12 830.976 190.912 896 290.88 896h360.768zM512 605.12a290.88 290.88 0 1 1 0-581.824 290.88 290.88 0 0 1 0 581.76z m0-69.824a221.12 221.12 0 1 0 0-442.24 221.12 221.12 0 0 0 0 442.24zM500.352 453.76a34.944 34.944 0 0 1-34.432-29.248l-0.448-5.696v-116.352c0-17.28 12.672-31.744 29.248-34.432l5.632-0.448h116.352a34.88 34.88 0 0 1 6.144 69.248l-6.144 0.576H535.296V418.88a34.88 34.88 0 0 1-34.944 34.944zM640 896v-209.472c0-38.528 31.232-69.76 69.76-69.76h209.536L640 896z"  horiz-adv-x="1024" />
      
      <glyph glyph-name="readDone" unicode="&#58884;" d="M533.312-5.759999999999991c-372.352 0-512 418.88-512 418.88S160.96 832 533.312 832s512-418.88 512-418.88-139.648-419.008-512-418.944z m0 85.312c296.576-0.064 407.744 333.568 407.744 333.568s-111.232 333.568-407.68 333.568c-296.576 0-407.744-333.568-407.744-333.568s111.232-333.568 407.68-333.568z m75.392 570.496a128 128 0 1 1 169.344-169.344 256 256 0 1 0-169.344 169.344z"  horiz-adv-x="1088" />
      
      <glyph glyph-name="icon_sousuo" unicode="&#58886;" d="M64 472.512c0 197.568 157.952 358.4 352 358.4 194.176 0 352.064-160.832 352.064-358.4 0-197.568-157.888-358.272-352-358.272S64 274.88 64 472.512m928.896-489.472l-230.016 239.616c-2.24 2.368-5.12 3.392-7.616 5.312a425.92 425.92 0 0 1 76.8 244.544C832.128 706.368 645.888 896 416 896 186.24 896 0 706.368 0 472.512s186.24-423.424 416-423.424a408.704 408.704 0 0 1 252.352 87.296c1.28-1.536 1.728-3.392 3.072-4.8l229.952-239.68a63.232 63.232 0 0 1 90.496-1.024 65.984 65.984 0 0 1 1.088 92.16"  horiz-adv-x="1024" />
      
      <glyph glyph-name="zhankai" unicode="&#23637;" d="M460.29937778 105.90890666999996a75.22076445 75.22076445 0 0 1 103.61969777 0L980.94648889 511.86801778c28.61738667 27.81639113 19.51516446 50.38990222-21.40842667 50.38990222l-895.07612444 0c-40.41386667 0-49.51608889-23.08323555-21.33560889-50.38990222l417.02741333-405.95911112z"  horiz-adv-x="1024" />
      
      <glyph glyph-name="icon_saixuan" unicode="&#58887;" d="M889.28 896H134.72C94.72 896 64 864.32 64 822.848v-43.904c0-19.456 7.04-36.544 18.88-48.704l311.232-297.472c14.08-14.656 23.552-34.112 23.552-53.632v-363.264c0-24.384 11.84-48.768 33.024-60.992l120.256-75.52c2.368-7.36 7.04-7.36 11.776-7.36a24 24 0 0 1 23.616 24.32V379.2c0 19.52 9.408 39.04 23.552 53.632l311.232 297.472c11.776 14.592 18.88 31.68 18.88 48.704v43.904C960 864.32 929.344 896 889.28 896z"  horiz-adv-x="1024" />
      
      <glyph glyph-name="icon_shu_ju_shi_tu" unicode="&#58890;" d="M970.624 896c35.392 0 64-28.48 64-64v-896c0-35.328-28.416-64-64-64H74.752c-35.392 0-64.064 28.48-64.064 64V832c0 35.328 28.416 64 64 64h895.936zM906.24 832H139.136c-35.648 0-64.448-28.8-64.448-64.448v-767.104c0-35.648 28.8-64.448 64.448-64.448h63.552v150.72c0 24.32 17.92 44.416 41.408 47.616l6.592 0.448c26.496 0 48-21.248 48-48.064V-64h96V400c0 24.32 17.92 44.416 41.408 47.552L442.688 448c26.496 0 48-21.376 48-48V-64h96v215.168c0 24.128 17.92 44.032 41.408 47.168l6.592 0.448c26.496 0 48-21.568 48-47.616V-64h96V541.888c0 24.512 17.92 44.8 41.408 48l6.592 0.448c26.496 0 48-21.888 48-48.448V-64h31.552c33.28 0 60.544 25.152 64 57.408l0.448 7.04V767.552C970.688 803.2 941.824 832 906.24 832z"  horiz-adv-x="1088" />
      
      <glyph glyph-name="icon_allwendang" unicode="&#58891;" d="M960 64a64 64 0 0 0 0-128H320a64 64 0 0 0 0 128h640zM64 64a64 64 0 1 0 0-128 64 64 0 0 0 0 128z m896 384a64 64 0 0 0 0-128H320a64 64 0 1 0 0 128h640zM64 448a64 64 0 1 0 0-128 64 64 0 0 0 0 128z m896 384a64 64 0 0 0 0-128H320a64 64 0 1 0 0 128h640zM64 832a64 64 0 1 0 0-128 64 64 0 0 0 0 128z"  horiz-adv-x="1024" />
      
      <glyph glyph-name="draft" unicode="&#58892;" d="M1023.808 678.2719999999999l-333.248-565.504-112.192 63.488 333.184 565.504zM561.536 12.73599999999999l110.336 52.224-119.36 67.52zM713.344 76.79999999999995a42.24 42.24 0 0 0-22.72-49.92l-110.272-52.288a43.84 43.84 0 0 0-40.384 1.472 42.24 42.24 0 0 0-21.504 33.536l-7.616 101.056h-308.48a42.816 42.816 0 0 0-43.2 42.304c0 23.36 19.328 42.368 43.2 42.368h337.728c0.384 0.64 0.448 1.408 0.768 1.984L615.808 324.48h-413.44a42.752 42.752 0 0 0-43.2 42.304c0 23.424 19.328 42.368 43.2 42.368h463.296l190.976 324.16c-18.176 56.896-70.208 98.304-132.352 98.304H139.776C62.592 831.616 0 768.064 0 689.664v-675.712C0-64.44799999999998 62.592-128 139.776-128h584.512c77.248 0 139.776 63.552 139.776 141.952V322.55999999999995l-136.128-231.04a42.688 42.688 0 0 0-14.592-14.848zM202.368 622.912h489.6c23.872 0 43.264-18.944 43.264-42.304a42.752 42.752 0 0 0-43.2-42.368H202.368a42.752 42.752 0 0 0-43.2 42.368c0 23.36 19.328 42.304 43.2 42.304z"  horiz-adv-x="1024" />
      
    </font>
</defs>
</svg>
