<?xml version="1.0" encoding="UTF-8"?>
<svg width="311px" height="82px" viewBox="0 0 311 82" version="1.1" xmlns="http://www.w3.org/2000/svg" xmlns:xlink="http://www.w3.org/1999/xlink">
    <title>CKEditor 5 logo</title>
    <g id="Page-1" stroke="none" stroke-width="1" fill="none" fill-rule="evenodd">
        <g id="logo" fill="#2D3A4A">
            <path d="M131.22,36.08 C130.233328,34.9333276 129.066673,34.0400032 127.72,33.4 C126.373327,32.7599968 125.006674,32.44 123.62,32.44 C121.886658,32.44 120.300007,32.8533292 118.86,33.68 C117.419993,34.5066708 116.286671,35.6466594 115.46,37.1 C114.633329,38.5533406 114.22,40.146658 114.22,41.88 C114.22,43.613342 114.633329,45.2066594 115.46,46.66 C116.286671,48.1133406 117.419993,49.2599958 118.86,50.1 C120.300007,50.9400042 121.886658,51.36 123.62,51.36 C124.95334,51.36 126.293327,51.0666696 127.64,50.48 C128.986673,49.8933304 130.179995,49.0800052 131.22,48.04 L134.38,51.56 C132.913326,53.0533408 131.206676,54.233329 129.26,55.1 C127.313324,55.966671 125.34001,56.4 123.34,56.4 C120.646653,56.4 118.180011,55.7600064 115.94,54.48 C113.699989,53.1999936 111.940006,51.460011 110.66,49.26 C109.379994,47.059989 108.74,44.62668 108.74,41.96 C108.74,39.29332 109.393327,36.8666776 110.7,34.68 C112.006673,32.4933224 113.786655,30.7733396 116.04,29.52 C118.293345,28.2666604 120.79332,27.64 123.54,27.64 C125.54001,27.64 127.49999,28.039996 129.42,28.84 C131.34001,29.640004 132.979993,30.7466596 134.34,32.16 L131.22,36.08 Z M162.668889,56 L156.228889,56 L147.428889,44 L143.028889,48.84 L143.028889,56 L137.668889,56 L137.668889,28 L143.028889,28 L143.028889,41.96 L155.668889,28 L161.988889,28 L151.228889,39.84 L162.668889,56 Z M165.597778,28 L186.117778,28 L186.117778,32.68 L170.957778,32.68 L170.957778,39.6 L184.557778,39.6 L184.557778,44.28 L170.957778,44.28 L170.957778,51.32 L186.597778,51.32 L186.597778,56 L165.597778,56 L165.597778,28 Z M211.366667,26.32 L211.366667,56 L206.166667,56 L206.166667,52.56 C205.39333,53.760006 204.400006,54.6733302 203.186667,55.3 C201.973328,55.9266698 200.566675,56.24 198.966667,56.24 C196.93999,56.24 195.160008,55.7800046 193.626667,54.86 C192.093326,53.9399954 190.900005,52.646675 190.046667,50.98 C189.193329,49.313325 188.766667,47.4000108 188.766667,45.24 C188.766667,43.106656 189.186663,41.2200082 190.026667,39.58 C190.866671,37.9399918 192.053326,36.6666712 193.586667,35.76 C195.120008,34.8533288 196.873324,34.4 198.846667,34.4 C200.473342,34.4 201.899994,34.7199968 203.126667,35.36 C204.35334,36.0000032 205.366663,36.919994 206.166667,38.12 L206.166667,26.32 L211.366667,26.32 Z M200.086667,51.88 C201.873343,51.88 203.333328,51.2733394 204.466667,50.06 C205.600006,48.8466606 206.166667,47.2800096 206.166667,45.36 C206.166667,43.4399904 205.600006,41.8733394 204.466667,40.66 C203.333328,39.4466606 201.873343,38.84 200.086667,38.84 C198.299991,38.84 196.846673,39.4466606 195.726667,40.66 C194.606661,41.8733394 194.033334,43.4399904 194.006667,45.36 C194.033334,47.2800096 194.606661,48.8466606 195.726667,50.06 C196.846673,51.2733394 198.299991,51.88 200.086667,51.88 Z M216.935556,34.6 L222.135556,34.6 L222.135556,56 L216.935556,56 L216.935556,34.6 Z M219.495556,25.4 C220.348894,25.4 221.055553,25.6933304 221.615556,26.28 C222.175559,26.8666696 222.455556,27.6133288 222.455556,28.52 C222.455556,29.4000044 222.175559,30.1333304 221.615556,30.72 C221.055553,31.3066696 220.348894,31.6 219.495556,31.6 C218.642218,31.6 217.935559,31.3066696 217.375556,30.72 C216.815553,30.1333304 216.535556,29.4000044 216.535556,28.52 C216.535556,27.6133288 216.815553,26.8666696 217.375556,26.28 C217.935559,25.6933304 218.642218,25.4 219.495556,25.4 Z M239.984445,54.68 C238.27777,55.7200052 236.491121,56.24 234.624445,56.24 C232.784436,56.24 231.277784,55.7000054 230.104445,54.62 C228.931106,53.5399946 228.344445,51.9466772 228.344445,49.84 L228.344445,39.28 L225.344445,39.28 L225.304445,35.48 L228.344445,35.48 L228.344445,29.6 L233.504445,29.6 L233.504445,35.48 L239.624445,35.48 L239.624445,39.28 L233.504445,39.28 L233.504445,48.92 C233.504445,49.9066716 233.69111,50.6066646 234.064445,51.02 C234.43778,51.4333354 234.997775,51.64 235.744445,51.64 C236.544449,51.64 237.557772,51.3466696 238.784445,50.76 L239.984445,54.68 Z M252.113334,34.44 C254.326678,34.44 256.279992,34.8933288 257.973334,35.8 C259.666676,36.7066712 260.986663,37.9799918 261.933334,39.62 C262.880005,41.2600082 263.353334,43.146656 263.353334,45.28 C263.353334,47.4400108 262.880005,49.3466584 261.933334,51 C260.986663,52.6533416 259.666676,53.9333288 257.973334,54.84 C256.279992,55.7466712 254.326678,56.2 252.113334,56.2 C249.873323,56.2 247.900009,55.7466712 246.193334,54.84 C244.486659,53.9333288 243.160005,52.6533416 242.213334,51 C241.266663,49.3466584 240.793334,47.4400108 240.793334,45.28 C240.793334,43.146656 241.266663,41.2600082 242.213334,39.62 C243.160005,37.9799918 244.486659,36.7066712 246.193334,35.8 C247.900009,34.8933288 249.873323,34.44 252.113334,34.44 Z M252.113334,38.88 C250.299992,38.88 248.83334,39.479994 247.713334,40.68 C246.593328,41.880006 246.033334,43.4399904 246.033334,45.36 C246.033334,47.2800096 246.593328,48.839994 247.713334,50.04 C248.83334,51.240006 250.299992,51.84 252.113334,51.84 C253.873343,51.84 255.313328,51.240006 256.433334,50.04 C257.55334,48.839994 258.113334,47.2800096 258.113334,45.36 C258.113334,43.4399904 257.55334,41.880006 256.433334,40.68 C255.313328,39.479994 253.873343,38.88 252.113334,38.88 Z M271.962223,38.72 C272.682227,37.3333264 273.662217,36.273337 274.902223,35.54 C276.142229,34.806663 277.588881,34.4266668 279.242223,34.4 L279.242223,39.44 C277.028879,39.306666 275.26223,39.8199942 273.942223,40.98 C272.622216,42.1400058 271.962223,43.7066568 271.962223,45.68 L271.962223,56 L266.762223,56 L266.762223,34.6 L271.962223,34.6 L271.962223,38.72 Z M299.860001,38.24 C301.966678,38.24 303.819993,38.5999964 305.420001,39.32 C307.020009,40.0400036 308.25333,41.0466602 309.120001,42.34 C309.986672,43.6333398 310.420001,45.0933252 310.420001,46.72 C310.420001,48.6133428 309.966672,50.2799928 309.060001,51.72 C308.15333,53.1600072 306.873343,54.2733294 305.220001,55.06 C303.566659,55.8466706 301.646679,56.24 299.460001,56.24 C297.699992,56.24 295.866677,55.940003 293.960001,55.34 C292.053325,54.739997 290.366675,53.9333384 288.900001,52.92 L291.020001,48.72 C292.220007,49.653338 293.499994,50.3799974 294.860001,50.9 C296.220008,51.4200026 297.579994,51.68 298.940001,51.68 C300.70001,51.68 302.093329,51.2733374 303.120001,50.46 C304.146673,49.6466626 304.660001,48.5333404 304.660001,47.12 C304.660001,45.7599932 304.153339,44.7066704 303.140001,43.96 C302.126663,43.2133296 300.620011,42.84 298.620001,42.84 C297.659996,42.84 296.393342,42.873333 294.820001,42.94 C293.24666,43.006667 292.033339,43.0799996 291.180001,43.16 L291.180001,28 L309.180001,28 L309.180001,32.68 L296.140001,32.68 L296.140001,38.24 L299.860001,38.24 Z" id="CKEditor-5"></path>
            <path d="M59.2576769,11.4756855 C58.2248461,13.6254036 57.6907121,15.9759179 57.694259,18.3556755 C57.694259,27.2175882 64.9639519,34.4023878 73.9305741,34.4023878 L74,34.4023878 L74,57.5415333 C73.9999273,60.3699812 72.4731099,62.9835479 69.9946595,64.3977718 L41.0053405,80.9393051 C38.5268272,82.353565 35.4731728,82.353565 32.9946595,80.9393051 L4.00534045,64.3977718 C1.52689012,62.9835479 7.27028093e-05,60.3699812 0,57.5415333 L0,24.4584667 C7.27028093e-05,21.6300188 1.52689012,19.0164521 4.00534045,17.6022282 L32.9946595,1.06069491 C35.4731728,-0.353564971 38.5268272,-0.353564971 41.0053405,1.06069491 L59.2576769,11.4756855 Z M20.9786382,26.4852532 C19.872594,26.4852532 18.975968,27.3714087 18.975968,28.4645369 L18.975968,29.2648272 C18.975968,30.3579554 19.872594,31.2441109 20.9786382,31.2441109 L53.6889186,31.2441109 C54.7949628,31.2441109 55.6915888,30.3579554 55.6915888,29.2648272 L55.6915888,28.4645369 C55.6915888,27.3714087 54.7949628,26.4852532 53.6889186,26.4852532 L20.9786382,26.4852532 Z M20.9786382,38.3174109 C19.872594,38.3174109 18.975968,39.2035664 18.975968,40.2966945 L18.975968,41.0976447 C18.975968,42.1907728 19.872594,43.0769283 20.9786382,43.0769283 L44.6602136,43.0769283 C45.7662578,43.0769283 46.6628838,42.1907728 46.6628838,41.0976447 L46.6628838,40.2966945 C46.6628838,39.2035664 45.7662578,38.3174109 44.6602136,38.3174109 L20.9786382,38.3174109 Z M20.9786382,50.1502283 C19.872594,50.1502283 18.975968,51.0363838 18.975968,52.129512 L18.975968,52.9298023 C18.975968,54.0229305 19.872594,54.909086 20.9786382,54.909086 L53.6889186,54.909086 C54.7949628,54.909086 55.6915888,54.0229305 55.6915888,52.9298023 L55.6915888,52.129512 C55.6915888,51.0363838 54.7949628,50.1502283 53.6889186,50.1502283 L20.9786382,50.1502283 Z M73.5,32 C66.0440488,32 60,25.9559512 60,18.5 C60,11.0440488 66.0440488,5 73.5,5 C80.9559512,5 87,11.0440488 87,18.5 C87,25.9559512 80.9559512,32 73.5,32 Z M78.1492683,20.7120244 C78.1492683,20.0969512 78.0392927,19.5582683 77.82,19.0972927 C77.6100128,18.648511 77.3032554,18.2517954 76.9217561,17.9356341 C76.5261101,17.6138977 76.0693155,17.3757552 75.579,17.2356098 C75.0438789,17.0792151 74.488837,17.0015714 73.9313415,17.005122 C73.7555122,17.005122 73.5605854,17.0130244 73.346561,17.0294878 C73.1494374,17.0433883 72.9538258,17.0737874 72.7617805,17.1203659 L72.860561,15.2751463 L77.5559268,15.2751463 L77.5559268,12.902439 L70.4055366,12.902439 L70.1256585,19.5747317 C70.5887159,19.4091809 71.0656353,19.2853228 71.5507317,19.2046341 C72.0834878,19.111122 72.5582927,19.0643659 72.9758049,19.0643659 C73.2616098,19.0643659 73.5474146,19.0920244 73.832561,19.1466829 C74.1183659,19.2013415 74.373878,19.2981463 74.5990976,19.435122 C74.8236585,19.5720976 75.0073902,19.7564878 75.1509512,19.9869756 C75.2931951,20.2174634 75.3649756,20.5032683 75.3649756,20.8430732 C75.3649756,21.4041463 75.1917805,21.8269268 74.8460488,22.1120732 C74.4996585,22.397878 74.0907073,22.540122 73.6185366,22.540122 C73.157561,22.540122 72.7591463,22.4084146 72.4239512,22.145 C72.0954632,21.8908304 71.8561198,21.5389632 71.7403902,21.1400732 L69.2195122,21.9145122 C69.3512195,22.3754878 69.5573415,22.7903659 69.8372195,23.1584878 C70.1155179,23.5249359 70.4555874,23.8400461 70.8421463,24.0896585 C71.232,24.341878 71.6659756,24.5374634 72.1440732,24.674439 C72.6344133,24.813286 73.1418504,24.8824517 73.6514634,24.8799024 C74.2224146,24.8799024 74.777561,24.7949512 75.3155854,24.6250488 C75.8398637,24.4620722 76.3288571,24.2020502 76.757122,23.8585122 C77.1874841,23.5086677 77.5338272,23.0666808 77.7706098,22.5651463 C78.0228293,22.0435854 78.1492683,21.425878 78.1492683,20.7120244 Z" id="Combined-Shape" fill="#32B968" fill-rule="nonzero"></path>
        </g>
    </g>
</svg>