<?xml version="1.0" standalone="no"?>
<!DOCTYPE svg PUBLIC "-//W3C//DTD SVG 1.1//EN" "http://www.w3.org/Graphics/SVG/1.1/DTD/svg11.dtd" >
<svg xmlns="http://www.w3.org/2000/svg">
<metadata>Generated by IcoMoon</metadata>
<defs>
<font id="fly-font" horiz-adv-x="1024">
<font-face units-per-em="1024" ascent="960" descent="-64" />
<missing-glyph horiz-adv-x="1024" />
<glyph unicode="&#x20;" horiz-adv-x="512" d="" />
<glyph unicode="&#xe900;" glyph-name="add" d="M470.4 406.4v-246.4h83.2v246.4h246.4v83.2h-246.4v246.4h-83.2v-246.4h-246.4v-83.2h246.4z" />
<glyph unicode="&#xe901;" glyph-name="add-circle" d="M480 416h-192v64h192v192h64v-192h192v-64h-192v-192h-64v192zM512 0c247.424 0 448 200.576 448 448s-200.576 448-448 448v0c-247.424 0-448-200.576-448-448s200.576-448 448-448v0zM512 64c-212.077 0-384 171.923-384 384s171.923 384 384 384v0c212.077 0 384-171.923 384-384s-171.923-384-384-384v0z" />
<glyph unicode="&#xe902;" glyph-name="add-rectangle" d="M480 256v160h-160v64h160v160h64v-160h160v-64h-160v-160h-64zM192 64c-35.346 0-64 28.654-64 64v0 640c0 35.346 28.654 64 64 64v0h640c35.346 0 64-28.654 64-64v0-640c0-35.346-28.654-64-64-64v0h-640zM192 128h640v640h-640v-640z" />
<glyph unicode="&#xe903;" glyph-name="arrow-down" d="M544 832v-645.504l233.344 233.344 45.248-45.248-297.024-296.96c-3.474-3.469-8.27-5.615-13.568-5.615s-10.094 2.146-13.568 5.615l-297.088 296.96 45.312 45.248 233.344-233.28v645.44h64z" />
<glyph unicode="&#xe904;" glyph-name="arrow-down-rectangle" d="M687.744 476.992l-143.744-143.744v338.752h-64v-338.752l-143.744 143.744-45.248-45.248 220.992-220.992 220.992 220.992-45.248 45.248zM192 64c-35.346 0-64 28.654-64 64v0 640c0 35.346 28.654 64 64 64v0h640c35.346 0 64-28.654 64-64v0-640c0-35.346-28.654-64-64-64v0h-640zM192 128h640v640h-640v-640z" />
<glyph unicode="&#xe905;" glyph-name="arrow-left" d="M250.496 416l233.408-233.344-45.312-45.248-296.96 297.024c-3.489 3.477-5.647 8.286-5.647 13.6s2.159 10.123 5.647 13.599l296.961 296.961 45.312-45.184-233.408-233.408h645.504v-64h-645.504z" />
<glyph unicode="&#xe906;" glyph-name="arrow-right" d="M773.504 480l-233.408 233.344 45.248 45.248 297.088-297.024c3.469-3.474 5.615-8.27 5.615-13.568s-2.146-10.094-5.615-13.568v0l-297.088-297.088-45.248 45.248 233.408 233.408h-645.504v64h645.504z" />
<glyph unicode="&#xe907;" glyph-name="arrow-up" d="M480 709.504l-233.344-233.408-45.312 45.248 297.088 297.088c3.474 3.469 8.27 5.615 13.568 5.615s10.094-2.146 13.568-5.615v0l297.024-297.088-45.248-45.248-233.344 233.408v-645.504h-64v645.504z" />
<glyph unicode="&#xe908;" glyph-name="attach" d="M776.128 713.216c-23.303 23.028-55.35 37.252-90.718 37.252-35.624 0-67.878-14.43-91.235-37.765l-461.439-461.439-45.248 45.248 461.44 461.44c35.061 35.689 83.835 57.806 137.774 57.806 106.64 0 193.088-86.448 193.088-193.088 0-53.955-22.13-102.742-57.809-137.778l-0.029-0.028-373.76-373.76c-21.666-20.968-51.23-33.891-83.811-33.891-66.592 0-120.576 53.984-120.576 120.576 0 32.582 12.923 62.145 33.923 83.844l-0.032-0.033 363.136 363.136 45.248-45.248-363.136-363.136c-10.237-10.237-16.569-24.379-16.569-40 0-31.242 25.327-56.569 56.569-56.569 15.621 0 29.763 6.332 40 16.569l373.76 373.76c23.333 23.356 37.764 55.61 37.764 91.234 0 35.942-14.689 68.452-38.39 91.857l-0.013 0.013z" />
<glyph unicode="&#xe909;" glyph-name="backtop" d="M127.936 768.064h768v64h-768v-64zM216.128 305.28l263.040 258.24v-553.536h64.64v553.856l267.52-260.928 45.76 44.8-323.2 315.264c-5.764 5.637-13.659 9.115-22.367 9.115-8.74 0-16.662-3.504-22.437-9.184l-318.844-312.956 45.824-44.608z" />
<glyph unicode="&#xe90a;" glyph-name="books" d="M511.936 366.208l-256-179.2v581.12h512v-581.12l-256 179.2zM511.936 288.128l269.632-188.8c5.118-3.626 11.489-5.797 18.368-5.797 17.673 0 32 14.327 32 32 0 0.013 0 0.026 0 0.039v-0.002 642.496c0 35.346-28.654 64-64 64v0h-512c-35.346 0-64-28.654-64-64v0-642.56c0-0.011 0-0.024 0-0.037 0-17.673 14.327-32 32-32 6.879 0 13.25 2.17 18.468 5.864l-0.1-0.067 269.632 188.8z" />
<glyph unicode="&#xe90b;" glyph-name="bulletpoint" d="M896 768h-576v-64h576v64zM224 768h-96v-64h96v64zM320 480h576v-64h-576v64zM128 480h96v-64h-96v64zM320 192h576v-64h-576v64zM128 192h96v-64h-96v64z" />
<glyph unicode="&#xe90c;" glyph-name="calendar" d="M640 768h-256v96h-64v-96h-128c-35.346 0-64-28.654-64-64v0-576c0-35.346 28.654-64 64-64v0h640c35.346 0 64 28.654 64 64v0 576c0 35.346-28.654 64-64 64v0h-128v96h-64v-96zM320 640h64v64h256v-64h64v64h128v-128h-640v128h128v-64zM192 512h640v-384h-640v384z" />
<glyph unicode="&#xe90d;" glyph-name="caret-down" d="M512 298.688l-256 341.312h512l-256-341.312zM486.4 226.112c5.9-7.807 15.167-12.8 25.6-12.8s19.7 4.993 25.542 12.72l0.058 0.080 320 426.688c3.996 5.281 6.4 11.96 6.4 19.2 0 17.673-14.327 32-32 32v0h-640c-17.673 0-32-14.327-32-32 0-7.24 2.404-13.919 6.458-19.28l-0.058 0.080 320-426.688z" />
<glyph unicode="&#xe90e;" glyph-name="caret-down-small" d="M704 576h-384l192-288 192 288z" />
<glyph unicode="&#xe90f;" glyph-name="caret-left" d="M298.688 448l341.312 256v-512l-341.312 256zM226.176 473.6c-7.807-5.9-12.8-15.167-12.8-25.6s4.993-19.7 12.72-25.542l0.080-0.058 426.624-320c5.281-3.996 11.96-6.4 19.2-6.4 17.673 0 32 14.327 32 32v0 640c0 17.673-14.327 32-32 32-7.24 0-13.919-2.404-19.28-6.458l0.080 0.058-426.624-320z" />
<glyph unicode="&#xe910;" glyph-name="caret-left-small" d="M672 640v-384l-288 192 288 192z" />
<glyph unicode="&#xe911;" glyph-name="caret-right" d="M725.376 448l-341.376-256v512l341.376-256zM797.888 422.4c7.807 5.9 12.8 15.167 12.8 25.6s-4.993 19.7-12.72 25.542l-0.080 0.058-426.688 320c-5.281 3.996-11.96 6.4-19.2 6.4-17.673 0-32-14.327-32-32v0-640c0-17.673 14.327-32 32-32 7.24 0 13.919 2.404 19.28 6.458l-0.080-0.058 426.688 320z" />
<glyph unicode="&#xe912;" glyph-name="caret-right-small" d="M384 640v-384l288 192-288 192z" />
<glyph unicode="&#xe913;" glyph-name="caret-up" d="M512 597.312l256-341.312h-512l256 341.312zM537.6 669.888c-5.9 7.807-15.167 12.8-25.6 12.8s-19.7-4.993-25.542-12.72l-0.058-0.080-320-426.688c-3.996-5.281-6.4-11.96-6.4-19.2 0-17.673 14.327-32 32-32h640c17.673 0 32 14.327 32 32 0 7.24-2.404 13.919-6.458 19.28l0.058-0.080-320 426.688z" />
<glyph unicode="&#xe914;" glyph-name="caret-up-small" d="M704 288h-384l192 288 192-288z" />
<glyph unicode="&#xe915;" glyph-name="chart-bar" d="M480 832v-768h64v768h-64zM160 576v-512h64v512h-64zM800 64v256h64v-256h-64z" />
<glyph unicode="&#xe916;" glyph-name="chat" d="M296.832 288h535.168v416h-640v-503.36l104.832 87.36zM159.488 90.24c-3.304-2.767-7.6-4.447-12.288-4.447-10.592 0-19.181 8.577-19.2 19.165v599.042c0 35.346 28.654 64 64 64v0h640c35.346 0 64-28.654 64-64v0-416c0-35.346-28.654-64-64-64v0h-512l-160.512-133.76z" />
<glyph unicode="&#xe917;" glyph-name="check-circle" d="M288 434.752l160-160 288 288-45.248 45.248-242.752-242.752-114.752 114.752-45.248-45.248zM263.104 820.48c70.563 48.559 157.867 77.556 251.943 77.556 247.424 0 448-200.576 448-448 0-155.924-79.657-293.244-200.497-373.484l-1.654-1.033c-69.257-46.053-154.35-73.484-245.849-73.484-247.424 0-448 200.576-448 448 0 153.347 77.046 288.7 194.54 369.458l1.517 0.985zM298.688 128.704c60.279-41.22 134.76-65.823 214.986-65.823 212.077 0 384 171.923 384 384 0 133.267-67.887 250.677-170.965 319.536l-1.397 0.878c-59.561 39.843-132.827 63.585-211.638 63.585-212.077 0-384-171.923-384-384 0-131.851 66.452-248.18 167.692-317.325l1.322-0.852z" />
<glyph unicode="&#xe918;" glyph-name="check-circle-filled" d="M512 0c247.424 0 448 200.576 448 448s-200.576 448-448 448v0c-247.424 0-448-200.576-448-448s200.576-448 448-448v0zM288 434.752l45.248 45.248 114.752-114.752 242.752 242.752 45.248-45.248-288-288-160 160z" />
<glyph unicode="&#xe919;" glyph-name="chevron-left" d="M610.56 733.44l58.816-58.88-226.56-226.56 226.56-226.56-58.88-58.88-285.376 285.44 285.44 285.44z" />
<glyph unicode="&#xe91a;" glyph-name="chevron-left-circle" d="M626.752 269.248l-178.752 178.752 178.752 178.752-45.248 45.248-224-224 224-224 45.248 45.248zM512 896c247.424 0 448-200.576 448-448s-200.576-448-448-448v0c-247.424 0-448 200.576-448 448s200.576 448 448 448v0zM512 832c-212.077 0-384-171.923-384-384s171.923-384 384-384v0c212.077 0 384 171.923 384 384s-171.923 384-384 384v0z" />
<glyph unicode="&#xe91b;" glyph-name="chevron-left-double" d="M834.56 674.56l-58.816 58.88-285.44-285.44 285.44-285.44 58.88 58.88-226.624 226.56 226.56 226.56zM514.56 674.56l-58.816 58.88-285.44-285.44 285.44-285.44 58.88 58.88-226.624 226.56 226.56 226.56z" />
<glyph unicode="&#xe91c;" glyph-name="chevron-left-rectangle" d="M626.752 269.248l-178.752 178.752 178.752 178.752-45.248 45.248-224-224 224-224 45.248 45.248zM192 64c-35.346 0-64 28.654-64 64v0 640c0 35.346 28.654 64 64 64v0h640c35.346 0 64-28.654 64-64v0-640c0-35.346-28.654-64-64-64v0h-640zM192 128h640v640h-640v-640z" />
<glyph unicode="&#xe91d;" glyph-name="chevron-right" d="M413.44 162.56l-58.816 58.88 226.56 226.56-226.56 226.56 58.88 58.88 285.376-285.44-285.44-285.44z" />
<glyph unicode="&#xe91e;" glyph-name="chevron-right-circle" d="M397.248 626.752l178.752-178.752-178.752-178.752 45.248-45.248 224 224-224 224-45.248-45.248zM512 0c-247.424 0-448 200.576-448 448s200.576 448 448 448v0c247.424 0 448-200.576 448-448s-200.576-448-448-448v0zM512 64c212.077 0 384 171.923 384 384s-171.923 384-384 384v0c-212.077 0-384-171.923-384-384s171.923-384 384-384v0z" />
<glyph unicode="&#xe91f;" glyph-name="chevron-right-double" d="M189.44 221.44l58.816-58.88 285.44 285.44-285.44 285.44-58.88-58.88 226.624-226.56-226.56-226.56zM509.44 221.44l58.816-58.88 285.44 285.44-285.44 285.44-58.88-58.88 226.624-226.56-226.56-226.56z" />
<glyph unicode="&#xe920;" glyph-name="chevron-right-rectangle" d="M397.248 626.752l178.752-178.752-178.752-178.752 45.248-45.248 224 224-224 224-45.248-45.248zM832 832c35.346 0 64-28.654 64-64v0-640c0-35.346-28.654-64-64-64v0h-640c-35.346 0-64 28.654-64 64v0 640c0 35.346 28.654 64 64 64v0h640zM832 768h-640v-640h640v640z" />
<glyph unicode="&#xe921;" glyph-name="chevron-up" d="M797.44 349.44l-58.88-58.88-226.56 226.56-226.56-226.56-58.88 58.88 285.44 285.312 285.44-285.44z" />
<glyph unicode="&#xe922;" glyph-name="chevron-up-circle" d="M333.248 333.248l178.752 178.752 178.752-178.752 45.248 45.248-224 224-224-224 45.248-45.248zM960 448c0-247.424-200.576-448-448-448s-448 200.576-448 448v0c0 247.424 200.576 448 448 448s448-200.576 448-448v0zM896 448c0 212.077-171.923 384-384 384s-384-171.923-384-384v0c0-212.077 171.923-384 384-384s384 171.923 384 384v0z" />
<glyph unicode="&#xe923;" glyph-name="chevron-up-rectangle" d="M333.248 333.248l178.752 178.752 178.752-178.752 45.248 45.248-224 224-224-224 45.248-45.248zM128 768c0 35.346 28.654 64 64 64v0h640c35.346 0 64-28.654 64-64v0-640c0-35.346-28.654-64-64-64v0h-640c-35.346 0-64 28.654-64 64v0 640zM192 768v-640h640v640h-640z" />
<glyph unicode="&#xe924;" glyph-name="circle" d="M512 896c247.424 0 448-200.576 448-448s-200.576-448-448-448v0c-247.424 0-448 200.576-448 448s200.576 448 448 448v0zM512 832c-212.077 0-384-171.923-384-384s171.923-384 384-384v0c212.077 0 384 171.923 384 384s-171.923 384-384 384v0z" />
<glyph unicode="&#xe925;" glyph-name="close" d="M512 389.12l196.864-196.8 58.88 58.88-196.992 196.8 196.864 196.864-58.816 58.88-196.8-196.992-196.864 196.928-58.88-58.88 196.992-196.8-196.864-196.864 58.88-58.88 196.736 196.992z" />
<glyph unicode="&#xe926;" glyph-name="close-circle" d="M318.72 300.032l148.096 147.968-148.096 147.968 45.248 45.248 148.032-147.968 147.968 147.968 45.248-45.248-147.968-147.968 147.968-147.968-45.248-45.248-147.968 147.968-147.968-148.032-45.248 45.248zM512 896c247.424 0 448-200.576 448-448s-200.576-448-448-448v0c-247.424 0-448 200.576-448 448s200.576 448 448 448v0zM512 832c-212.077 0-384-171.923-384-384s171.923-384 384-384v0c212.077 0 384 171.923 384 384s-171.923 384-384 384v0z" />
<glyph unicode="&#xe927;" glyph-name="close-circle-filled" d="M960 448c0 247.424-200.576 448-448 448s-448-200.576-448-448v0c0-247.424 200.576-448 448-448s448 200.576 448 448v0zM362.88 643.328l149.12-149.888 149.12 149.952 45.312-45.12-149.312-150.272 149.312-150.272-45.376-45.056-149.056 149.888-149.12-150.016-45.312 45.184 149.312 150.272-149.312 150.208 45.376 45.12z" />
<glyph unicode="&#xe928;" glyph-name="close-rectangle" d="M308.352 289.6l158.4 158.4-158.4 158.4 45.248 45.248 158.4-158.4 158.4 158.4 45.248-45.248-158.4-158.4 158.4-158.4-45.248-45.248-158.4 158.4-158.4-158.4-45.248 45.248zM192 64c-35.346 0-64 28.654-64 64v0 640c0 35.346 28.654 64 64 64v0h640c35.346 0 64-28.654 64-64v0-640c0-35.346-28.654-64-64-64v0h-640zM192 128h640v640h-640v-640z" />
<glyph unicode="&#xe929;" glyph-name="delete" d="M384 192v384h64v-384h-64zM576 576v-384h64v384h-64zM672 768h224v-64h-64v-640c0-35.346-28.654-64-64-64v0h-512c-35.346 0-64 28.654-64 64v0 640h-64v64h224v76.8c0 28.277 22.923 51.2 51.2 51.2h217.6c28.277 0 51.2-22.923 51.2-51.2v-76.8zM416 768h192v64h-192v-64zM256 704v-640h512v640h-512z" />
<glyph unicode="&#xe92a;" glyph-name="desktop" d="M160 256h320v-128h-288v-64h640v64h-288v128h320c35.346 0 64 28.654 64 64v0 448c0 35.346-28.654 64-64 64v0h-704c-35.346 0-64-28.654-64-64v0-448c0-35.346 28.654-64 64-64v0zM160 768h704v-448h-704v448z" />
<glyph unicode="&#xe92b;" glyph-name="discount-filled" d="M447.168 618.88c14.655-13.725 23.787-33.194 23.787-54.796 0-41.426-33.582-75.008-75.008-75.008-21.618 0-41.099 9.145-54.787 23.777l-0.039 0.042c-12.503 13.365-20.181 31.38-20.181 51.188 0 41.426 33.582 75.008 75.008 75.008 19.824 0 37.852-7.69 51.263-20.251l-0.042 0.039zM128 465.28c0.004-17.671 7.169-33.669 18.752-45.248l378.368-378.368c11.581-11.578 27.578-18.738 45.248-18.738s33.667 7.161 45.248 18.739l302.72 302.72c11.578 11.581 18.738 27.578 18.738 45.248s-7.161 33.667-18.739 45.248l-378.368 378.368c-11.579 11.583-27.576 18.748-45.247 18.752h-366.721v-366.72zM492.416 664.192c25.158-25.158 40.719-59.914 40.719-98.304 0-76.78-62.243-139.023-139.023-139.023-38.39 0-73.146 15.561-98.304 40.719v0c-25.158 25.158-40.719 59.914-40.719 98.304 0 76.78 62.243 139.023 139.023 139.023 38.39 0 73.146-15.561 98.304-40.719v0z" />
<glyph unicode="&#xe92c;" glyph-name="download" d="M784.896 587.904l-240.896-240.832v580.928h-64v-580.928l-240.896 240.832-45.248-45.248 295.488-295.488c5.794-5.808 13.805-9.401 22.656-9.401s16.862 3.593 22.655 9.401l295.489 295.489-45.248 45.248zM128 256v-128c0-35.346 28.654-64 64-64v0h640c35.346 0 64 28.654 64 64v0 128h-64v-128h-640v128h-64z" />
<glyph unicode="&#xe92d;" glyph-name="edit" d="M696.448 848.832l207.552-207.552 45.248 45.248-207.488 207.552-45.248-45.248zM150.528 72.768l231.232 46.208 467.072 467.072-207.616 207.552-467.008-467.008-46.272-231.232c-0.237-1.132-0.373-2.432-0.373-3.765 0-10.604 8.596-19.2 19.2-19.2 1.332 0 2.633 0.136 3.889 0.394l-0.124-0.021zM641.216 703.168l117.12-117.12-408.128-408.064-146.304-29.312 29.248 146.368 408.064 408.064z" />
<glyph unicode="&#xe92e;" glyph-name="ellipsis" d="M192 384c-35.346 0-64 28.654-64 64s28.654 64 64 64v0c35.346 0 64-28.654 64-64s-28.654-64-64-64v0zM448 448c0-35.346 28.654-64 64-64s64 28.654 64 64v0c0 35.346-28.654 64-64 64s-64-28.654-64-64v0zM768 448c0-35.346 28.654-64 64-64s64 28.654 64 64v0c0 35.346-28.654 64-64 64s-64-28.654-64-64v0z" />
<glyph unicode="&#xe92f;" glyph-name="enter" d="M832 704v-384h-562.752l105.408 105.344-45.248 45.312-160-160c-5.808-5.794-9.401-13.805-9.401-22.656s3.593-16.862 9.401-22.655l160.001-160.001 45.248 45.312-105.408 105.344h562.752c35.346 0 64 28.654 64 64v0 384h-64z" />
<glyph unicode="&#xe930;" glyph-name="error" d="M544 832h-64v-576h64v576zM550.4 140.8h-76.8v-76.8h76.8v76.8z" />
<glyph unicode="&#xe931;" glyph-name="error-circle" d="M544 704v-352h-64v352h64zM550.016 288h-76.8v-76.8h76.8v76.8zM960 448c0 247.424-200.576 448-448 448s-448-200.576-448-448v0c0-247.424 200.576-448 448-448s448 200.576 448 448v0zM896 448c0-212.077-171.923-384-384-384s-384 171.923-384 384v0c0 212.077 171.923 384 384 384s384-171.923 384-384v0z" />
<glyph unicode="&#xe932;" glyph-name="error-circle-filled" d="M960 448c0 247.424-200.576 448-448 448s-448-200.576-448-448v0c0-247.424 200.576-448 448-448s448 200.576 448 448v0zM544 704v-352h-64v352h64zM473.216 256h76.8v-76.8h-76.8v76.8z" />
<glyph unicode="&#xe933;" glyph-name="fullscreen" d="M224 690.752v-178.752h-64v256c0 17.673 14.327 32 32 32v0h256v-64h-178.752l201.408-201.344-45.312-45.312-201.344 201.408zM800 205.248v178.752h64v-256c0-17.673-14.327-32-32-32v0h-256v64h178.752l-201.408 201.344 45.312 45.312 201.344-201.408z" />
<glyph unicode="&#xe934;" glyph-name="fullscreen-exit" d="M416 589.248v178.752h64v-256c0-17.673-14.327-32-32-32v0h-256v64h178.752l-233.408 233.344 45.312 45.312 233.344-233.408zM608 306.752v-178.752h-64v256c0 17.673 14.327 32 32 32v0h256v-64h-178.752l233.408-233.344-45.248-45.312-233.408 233.408z" />
<glyph unicode="&#xe935;" glyph-name="gender-male" d="M832 729.6c0 21.208-17.192 38.4-38.4 38.4v0h-217.6v-64h152.512l-237.44-237.44c-37.554 29.442-85.481 47.214-137.56 47.214-123.712 0-224-100.288-224-224s100.288-224 224-224c123.712 0 224 100.288 224 224 0 49.069-15.778 94.453-42.537 131.356l0.449-0.65 232.576 232.512v-140.992h64v217.6zM240.448 176.448c-28.958 28.958-46.869 68.963-46.869 113.152 0 88.377 71.644 160.021 160.021 160.021 44.189 0 84.194-17.911 113.152-46.869v0c28.958-28.958 46.869-68.963 46.869-113.152 0-88.377-71.644-160.021-160.021-160.021-44.189 0-84.194 17.911-113.152 46.869v0z" />
<glyph unicode="&#xe936;" glyph-name="heart" d="M512 585.152l68.096 62.464c96.384 88.32 251.904 19.904 251.904-110.848 0-39.872-15.872-78.080-44.032-106.24l-275.968-276.096-275.968 276.032c-27.205 27.205-44.032 64.789-44.032 106.303 0 0 0 0.001 0 0.001v0c0 130.816 155.52 199.232 251.904 110.912l68.096-62.528zM487.168 694.784c-137.472 126.016-359.168 28.416-359.168-158.016 0-56.832 22.592-111.36 62.72-151.552l311.936-311.872c5.12-5.12 13.504-5.12 18.688 0l311.872 311.872c40.192 40.192 62.784 94.72 62.784 151.552 0 186.496-221.696 284.032-359.168 158.016l-24.832-22.784-24.832 22.784z" />
<glyph unicode="&#xe937;" glyph-name="heart-filled" d="M128 536.768c0 186.496 221.696 284.032 359.168 158.016l24.832-22.784 24.832 22.784c137.472 126.016 359.168 28.416 359.168-158.016 0-56.832-22.592-111.36-62.72-151.552l-311.936-311.872c-5.12-5.12-13.504-5.12-18.688 0l-311.872 311.872c-38.788 38.785-62.78 92.366-62.784 151.551v0.001z" />
<glyph unicode="&#xe938;" glyph-name="help-circle" d="M473.216 217.6c0 21.208 17.192 38.4 38.4 38.4s38.4-17.192 38.4-38.4v0c0-21.208-17.192-38.4-38.4-38.4s-38.4 17.192-38.4 38.4v0zM511.616 703.616c-85.658-0.109-155.063-69.537-155.136-155.193v-0.007h64c0 50.24 40.96 91.2 91.2 91.2s91.2-40.96 91.2-91.2c0-34.432-28.416-68.928-65.6-84.032h-0.128c-33.92-14.080-57.472-47.36-57.472-86.272v-58.112h64v58.112c0 12.416 7.36 22.72 17.792 27.008 52.992 21.568 105.408 74.944 105.408 143.296-0.073 85.685-69.515 155.127-155.193 155.2h-0.007zM959.616 448c0 247.424-200.576 448-448 448s-448-200.576-448-448v0c0-247.424 200.576-448 448-448s448 200.576 448 448v0zM895.616 448c0-212.077-171.923-384-384-384s-384 171.923-384 384v0c0 212.077 171.923 384 384 384s384-171.923 384-384v0z" />
<glyph unicode="&#xe939;" glyph-name="help-circle-filled" d="M959.616 448c0 247.424-200.576 448-448 448s-448-200.576-448-448v0c0-247.424 200.576-448 448-448s448 200.576 448 448v0zM371.392 535.616c0 77.312 62.848 140.224 140.224 140.224 77.44 0 140.288-62.912 140.288-140.224 0-62.080-47.552-110.144-95.040-129.536-7.85-3.362-13.249-11.021-13.249-19.942 0-0.077 0-0.153 0.001-0.23v0.012-51.008h-64v51.008c0 35.84 21.76 66.496 52.928 79.36l0.128 0.064c31.68 12.864 55.232 42.048 55.232 70.272 0 41.984-34.24 76.224-76.288 76.224-41.984 0-76.224-34.24-76.224-76.224h-64zM477.888 244.928c0 18.627 15.101 33.728 33.728 33.728s33.728-15.101 33.728-33.728v0c0-18.627-15.101-33.728-33.728-33.728s-33.728 15.101-33.728 33.728v0z" />
<glyph unicode="&#xe93a;" glyph-name="home" d="M384 256v-64h256v64h-256zM489.344 854.656c5.794 5.808 13.805 9.401 22.656 9.401s16.862-3.593 22.655-9.401l416.001-416.001-45.248-45.312-73.408 73.408v-370.752c0-35.346-28.654-64-64-64v0h-512c-35.346 0-64 28.654-64 64v0 370.752l-73.344-73.408-45.312 45.312 416 416zM512 786.752l-256-256v-434.752h512v434.752l-256 256z" />
<glyph unicode="&#xe93b;" glyph-name="laptop" d="M160 192c-35.346 0-64 28.654-64 64v0 448c0 35.346 28.654 64 64 64v0h704c35.346 0 64-28.654 64-64v0-448c0-35.346-28.654-64-64-64v0h-704zM160 256h704v448h-704v-448zM960 128h-896v-64h896v64z" />
<glyph unicode="&#xe93c;" glyph-name="link" d="M398.848 199.040l135.808 135.808 45.248-45.248-135.808-135.744c-28.743-27.789-67.949-44.914-111.154-44.914-88.366 0-160 71.634-160 160 0 43.205 17.125 82.41 44.957 111.199l-0.043-0.045 135.744 135.808 45.248-45.248-135.744-135.808c-16.673-17.246-26.948-40.769-26.948-66.692 0-53.019 42.981-96 96-96 25.923 0 49.446 10.275 66.719 26.974l-0.027-0.026zM670.4 380.16l-45.248 45.184 135.744 135.808c18.082 17.481 29.308 41.955 29.308 69.052 0 53.019-42.981 96-96 96-27.096 0-51.571-11.226-69.026-29.281l-0.026-0.027-135.808-135.744-45.248 45.248 135.808 135.744c28.743 27.789 67.949 44.914 111.154 44.914 88.366 0 160-71.634 160-160 0-43.205-17.125-82.41-44.957-111.199l0.043 0.045-135.744-135.808zM579.84 561.152l-180.928-181.056 45.312-45.248 180.992 181.056-45.248 45.248z" />
<glyph unicode="&#xe93d;" glyph-name="location" d="M672 576c0-88.366-71.634-160-160-160s-160 71.634-160 160v0c0 88.366 71.634 160 160 160s160-71.634 160-160v0zM608 576c0 53.019-42.981 96-96 96s-96-42.981-96-96v0c0-53.019 42.981-96 96-96s96 42.981 96 96v0zM535.168 34.048c-5.116-7.437-13.58-12.251-23.168-12.251s-18.052 4.814-23.107 12.157l-0.061 0.095-242.048 355.584c-34.841 50.573-55.648 113.159-55.648 180.604 0 177.226 143.67 320.896 320.896 320.896s320.896-143.67 320.896-320.896c0-67.445-20.807-130.031-56.353-181.688l0.705 1.084-242.112-355.584zM724.352 425.664c27.889 40.485 44.544 90.585 44.544 144.576 0 141.88-115.016 256.896-256.896 256.896s-256.896-115.016-256.896-256.896c0-53.99 16.655-104.091 45.108-145.443l-0.564 0.867 212.352-311.936 212.352 311.936z" />
<glyph unicode="&#xe93e;" glyph-name="logo-windows" d="M832 832c35.346 0 64-28.654 64-64v0-640c0-35.346-28.654-64-64-64v0h-640c-35.346 0-64 28.654-64 64v0 640c0 35.346 28.654 64 64 64v0h640zM480 768h-288v-288h288v288zM544 128h288v288h-288v-288zM480 416h-288v-288h288v288zM544 480h288v288h-288v-288z" />
<glyph unicode="&#xe93f;" glyph-name="mail" d="M95.936 704.064c0 35.346 28.654 64 64 64v0h704c35.346 0 64-28.654 64-64v0-512c0-35.346-28.654-64-64-64v0h-704c-35.346 0-64 28.654-64 64v0 512zM838.272 704.064h-652.672l326.4-217.536 326.336 217.6zM159.936 644.288v-452.288h704v452.288l-352-234.688-352 234.688z" />
<glyph unicode="&#xe940;" glyph-name="minus-circle" d="M288 416h448v64h-448v-64zM960 448c0-247.424-200.576-448-448-448s-448 200.576-448 448v0c0 247.424 200.576 448 448 448s448-200.576 448-448v0zM896 448c0 212.077-171.923 384-384 384s-384-171.923-384-384v0c0-212.077 171.923-384 384-384s384 171.923 384 384v0z" />
<glyph unicode="&#xe941;" glyph-name="minus-circle-filled" d="M512 0c247.424 0 448 200.576 448 448s-200.576 448-448 448v0c-247.424 0-448-200.576-448-448s200.576-448 448-448v0zM736 416h-448v64h448v-64z" />
<glyph unicode="&#xe942;" glyph-name="minus-rectangle" d="M320 416h384v64h-384v-64zM192 64c-35.346 0-64 28.654-64 64v0 640c0 35.346 28.654 64 64 64v0h640c35.346 0 64-28.654 64-64v0-640c0-35.346-28.654-64-64-64v0h-640zM192 128h640v640h-640v-640z" />
<glyph unicode="&#xe943;" glyph-name="more" d="M512 704c35.346 0 64 28.654 64 64s-28.654 64-64 64v0c-35.346 0-64-28.654-64-64s28.654-64 64-64v0zM512 384c35.346 0 64 28.654 64 64s-28.654 64-64 64v0c-35.346 0-64-28.654-64-64s28.654-64 64-64v0zM576 128c0-35.346-28.654-64-64-64s-64 28.654-64 64v0c0 35.346 28.654 64 64 64s64-28.654 64-64v0z" />
<glyph unicode="&#xe944;" glyph-name="pause-circle-filled" d="M960 448c0-247.424-200.576-448-448-448s-448 200.576-448 448v0c0 247.424 200.576 448 448 448s448-200.576 448-448v0zM384 640v-384h64v384h-64zM640 640h-64v-384h64v384z" />
<glyph unicode="&#xe945;" glyph-name="play" d="M739.2 464.64c5.791-3.379 9.621-9.562 9.621-16.64s-3.83-13.261-9.53-16.591l-0.091-0.049-326.4-188.416c-2.754-1.617-6.065-2.572-9.6-2.572-10.604 0-19.2 8.596-19.2 19.2 0 0.004 0 0.009 0 0.013v-0.001 376.832c0 0.004 0 0.008 0 0.012 0 10.604 8.596 19.2 19.2 19.2 3.535 0 6.846-0.955 9.691-2.621l-0.091 0.049 326.4-188.416z" />
<glyph unicode="&#xe946;" glyph-name="play-circle-filled" d="M960 448c0 247.424-200.576 448-448 448s-448-200.576-448-448v0c0-247.424 200.576-448 448-448s448 200.576 448 448v0zM702.976 433.408l-286.336-165.248c-2.407-1.406-5.298-2.237-8.384-2.237-9.295 0-16.83 7.534-16.832 16.828v0 330.56c0 12.992 14.016 21.12 25.216 14.592l286.336-165.312c5.081-2.961 8.442-8.384 8.442-14.592s-3.361-11.631-8.362-14.549l-0.080-0.043z" />
<glyph unicode="&#xe947;" glyph-name="poweroff" d="M480 896v-448h64v448h-64zM96 416c0 0.009 0 0.020 0 0.031 0 158.771 88.945 296.767 219.726 366.879l2.226 1.090 32-55.488c-113.769-59.88-190.016-177.293-190.016-312.514 0-194.404 157.596-352 352-352s352 157.596 352 352c0 135.221-76.247 252.634-188.093 311.591l-1.923 0.924 32.128 55.488c133.007-71.202 221.952-209.199 221.952-367.969 0-229.75-186.25-416-416-416-229.74 0-415.983 186.232-416 415.968v0.001z" />
<glyph unicode="&#xe948;" glyph-name="refresh" d="M512 786.496c185.344 0 336.192-151.232 336.192-338.432h61.568c0 220.864-178.112 399.936-397.76 399.936-142.629-0.105-267.649-75.397-337.58-188.379l-0.98-1.701v132.928h-61.44v-198.784c0-17.673 14.327-32 32-32v0h197.568v61.696h-118.208c59.483 99.22 166.411 164.627 288.624 164.736h0.016zM114.304 448.064h61.44c0-187.2 150.912-338.368 336.256-338.368 122.229 0.109 229.157 65.516 287.793 163.215l0.847 1.521h-118.208v61.696h197.568c17.673 0 32-14.327 32-32v0-198.848h-61.376v132.928c-70.911-114.683-195.931-189.975-338.545-190.080h-0.015c-219.712 0-397.76 179.072-397.76 400z" />
<glyph unicode="&#xe949;" glyph-name="remove" d="M224 489.6h576v-83.2h-576v83.2z" />
<glyph unicode="&#xe94a;" glyph-name="rollback" d="M269.248 640l105.408 105.344-45.248 45.312-160-160c-5.808-5.794-9.401-13.805-9.401-22.656s3.593-16.862 9.401-22.655l160.001-160.001 45.248 45.312-105.408 105.344h370.752c106.039 0 192-85.961 192-192s-85.961-192-192-192v0h-320v-64h320c141.385 0 256 114.615 256 256s-114.615 256-256 256v0h-370.752z" />
<glyph unicode="&#xe94b;" glyph-name="root-list" d="M288 640h448v-64h-448v64zM576 480h-288v-64h288v64zM192 832c-35.346 0-64-28.654-64-64v0-640c0-35.346 28.654-64 64-64v0h640c35.346 0 64 28.654 64 64v0 640c0 35.346-28.654 64-64 64v0h-640zM832 768v-640h-640v640h640z" />
<glyph unicode="&#xe94c;" glyph-name="round" d="M512 224c-123.712 0-224 100.288-224 224s100.288 224 224 224v0c123.712 0 224-100.288 224-224s-100.288-224-224-224v0zM512 128c176.731 0 320 143.269 320 320s-143.269 320-320 320v0c-176.731 0-320-143.269-320-320s143.269-320 320-320v0z" />
<glyph unicode="&#xe94d;" glyph-name="save" d="M704 832l192-192v-512c0-35.346-28.654-64-64-64v0h-640c-35.346 0-64 28.654-64 64v0 640c0 35.346 28.654 64 64 64v0h512zM640 768h-256v-96h256v96zM704 741.504v-133.504h-384v160h-128v-640h128v320h384v-320h128v485.504l-128 128zM640 128v256h-256v-256h256z" />
<glyph unicode="&#xe94e;" glyph-name="search" d="M608.64 305.984c-51.904-42.249-118.836-67.84-191.744-67.84-168.389 0-304.896 136.507-304.896 304.896s136.507 304.896 304.896 304.896c168.389 0 304.896-136.507 304.896-304.896 0-72.908-25.591-139.84-68.28-192.302l0.44 0.558 226.048-225.92-45.312-45.376-226.048 225.984zM657.728 543.104c0.020 1.168 0.032 2.546 0.032 3.926 0 133.008-107.824 240.832-240.832 240.832s-240.832-107.824-240.832-240.832c0-1.38 0.012-2.758 0.035-4.133l-0.003 0.207c2.209-131.308 109.172-236.906 240.8-236.906s238.591 105.598 240.797 236.699l0.003 0.207z" />
<glyph unicode="&#xe94f;" glyph-name="setting" d="M704 448c0-106.039-85.961-192-192-192s-192 85.961-192 192v0c0 106.039 85.961 192 192 192s192-85.961 192-192v0zM640 448c0 70.692-57.308 128-128 128s-128-57.308-128-128v0c0-70.692 57.308-128 128-128s128 57.308 128 128v0zM512 880l387.968-216v-432l-387.968-216-387.968 216v432l387.968 216zM188.032 626.368v-356.736l323.968-180.352 323.968 180.352v356.736l-323.968 180.352-323.968-180.352z" />
<glyph unicode="&#xe950;" glyph-name="time" d="M480 704v-280.896l160-167.104 45.248 45.248-141.248 148.352v254.4h-64zM960 448c0-247.424-200.576-448-448-448s-448 200.576-448 448v0c0 247.424 200.576 448 448 448s448-200.576 448-448v0zM896 448c0 212.077-171.923 384-384 384s-384-171.923-384-384v0c0-212.077 171.923-384 384-384s384 171.923 384 384v0z" />
<glyph unicode="&#xe951;" glyph-name="time-filled" d="M512 0c247.424 0 448 200.576 448 448s-200.576 448-448 448v0c-247.424 0-448-200.576-448-448s200.576-448 448-448v0zM480 640h64v-190.4l182.656-182.656-45.248-45.248-201.408 201.408v216.896z" />
<glyph unicode="&#xe952;" glyph-name="tools" d="M624 432l35.968-9.856c63.936-17.664 133.632-1.6 182.144 46.912 33.362 33.587 53.981 79.867 53.981 130.964 0 10.365-0.848 20.532-2.48 30.435l0.147-1.078-67.52-67.648c-17.372-17.366-41.367-28.107-67.872-28.107s-50.5 10.741-67.872 28.108l-27.2 27.2c-17.366 17.372-28.107 41.367-28.107 67.872s10.741 50.5 28.108 67.872v0l67.648 67.584c-8.825 1.485-18.991 2.333-29.356 2.333-51.096 0-97.376-20.619-130.974-53.991l0.010 0.010c-33.382-33.667-54.009-80.026-54.009-131.203 0-18.142 2.592-35.678 7.426-52.258l-0.329 1.317 9.856-35.904-371.456-371.456 90.496-90.56 371.52 371.52zM783.616 845.056c21.12-7.168 41.536-17.088 60.672-29.888l-135.808-135.744c-5.789-5.791-9.369-13.789-9.369-22.624s3.58-16.833 9.369-22.624l27.2-27.2c5.791-5.789 13.789-9.369 22.624-9.369s16.833 3.58 22.624 9.369l135.744 135.808c12.8-19.136 22.72-39.552 29.824-60.672 29.824-88.32 10.24-188.928-59.136-258.304-45.25-44.966-107.61-72.758-176.462-72.758-24.196 0-47.59 3.432-69.722 9.836l1.768-0.438-345.152-345.152c-11.581-11.578-27.578-18.738-45.248-18.738s-33.667 7.161-45.248 18.739l-90.496 90.496c-11.597 11.584-18.77 27.594-18.77 45.28s7.174 33.696 18.77 45.279l345.153 345.089c-5.975 20.378-9.412 43.79-9.412 68.004 0 68.859 27.798 131.225 72.785 176.489l-0.012-0.012c69.376 69.312 169.984 88.96 258.304 59.136z" />
<glyph unicode="&#xe953;" glyph-name="upload" d="M239.232 532.608l240.768 240.896v-549.504h64v549.504l240.896-240.896 45.248 45.248-295.488 295.488c-5.791 5.789-13.789 9.369-22.624 9.369s-16.833-3.58-22.624-9.369l-295.488-295.424 45.312-45.248zM128 256v-128c0-35.346 28.654-64 64-64v0h640c35.346 0 64 28.654 64 64v0 128h-64v-128h-640v128h-64z" />
<glyph unicode="&#xe954;" glyph-name="user" d="M736 640c0-123.712-100.288-224-224-224s-224 100.288-224 224v0c0 123.712 100.288 224 224 224s224-100.288 224-224v0zM672 640c0 88.366-71.634 160-160 160s-160-71.634-160-160v0c0-88.366 71.634-160 160-160s160 71.634 160 160v0zM893.632 265.408c20.522-10.237 34.371-31.079 34.371-55.156 0-0.229-0.001-0.458-0.004-0.687v0.035-145.6c0-17.673-14.327-32-32-32v0h-768c-17.673 0-32 14.327-32 32v0 145.6c-0.002 0.194-0.003 0.423-0.003 0.652 0 24.077 13.849 44.919 34.016 54.995l0.356 0.161c111.47 54.64 242.589 86.592 381.172 86.592 0.162 0 0.324 0 0.486 0h-0.025c136.512 0 265.6-31.168 381.632-86.592zM512 288c-125.888 0-244.864-28.544-352-79.36v-112.64h704v112.64c-102.86 50.082-223.776 79.36-351.53 79.36-0.165 0-0.33 0-0.496 0h0.025z" />
<glyph unicode="&#xe955;" glyph-name="usergroup" d="M384 896c33.664 0 65.408-8 93.568-22.144l-40.32-52.032c-15.772 6.46-34.076 10.21-53.257 10.21-79.529 0-144-64.471-144-144 0-78.497 62.808-142.324 140.911-143.968l0.153-0.003v-64c-112.787 2.691-203.19 94.76-203.19 207.944 0 114.219 92.064 206.935 206.034 207.991l0.1 0.001zM34.56 356.096c101.506 48.79 220.641 77.451 346.431 77.824h0.129v-64c-113.28-0.448-220.352-25.792-317.056-70.656v-107.264h118.848v-64h-150.912c-17.673 0-32 14.327-32 32v0 140.224c0 23.808 13.12 45.824 34.56 55.872zM640 427.904c-114.875 0-208 93.125-208 208s93.125 208 208 208v0c114.875 0 208-93.125 208-208s-93.125-208-208-208v0zM640 491.904c79.529 0 144 64.471 144 144s-64.471 144-144 144v0c-79.529 0-144-64.471-144-144s64.471-144 144-144v0zM1024 222.848c0.003 0.223 0.005 0.487 0.005 0.751 0 24.133-13.972 45.003-34.268 54.961l-0.36 0.16c-102.174 49.084-222.133 77.76-348.79 77.76-0.206 0-0.412 0-0.618 0h0.032c-0.193 0-0.421 0-0.65 0-126.657 0-246.616-28.677-353.739-79.891l4.949 2.131c-20.622-10.13-34.565-30.982-34.565-55.090 0-0.275 0.002-0.549 0.005-0.824v0.042-158.848c0-17.673 14.327-32 32-32v0h704c17.673 0 32 14.327 32 32v0 158.848zM960 221.824v-125.824h-640v125.824c93.619 44.606 203.453 70.656 319.372 70.656 0.221 0 0.442 0 0.663 0h-0.035c114.368 0 222.464-25.408 320-70.656z" />
<glyph unicode="&#xe956;" glyph-name="view-column" d="M224 832v-768h64v768h-64zM480 64v768h64v-768h-64zM736 64v768h64v-768h-64z" />
<glyph unicode="&#xe957;" glyph-name="view-list" d="M896 672h-768v64h768v-64zM896 416h-768v64h768v-64zM128 160h768v64h-768v-64z" />
<glyph unicode="&#xe958;" glyph-name="wifi" d="M649.856 274.944l44.672 45.824c-52.8 53.696-117.056 83.2-183.488 83.2-65.664 0-129.152-28.8-181.568-81.28l44.672-45.824c42.432 42.88 90.88 63.040 136.896 63.040 46.72 0 95.872-20.8 138.816-64.96zM779.392 407.872l44.736 45.824c-87.936 90.56-198.4 140.672-313.024 140.672-113.856 0-223.616-49.408-311.232-138.752l44.736-45.824c77.248 79.36 171.648 120.576 266.496 120.576 95.552 0 190.72-41.92 268.288-122.496zM904.512 536.128l44.736 45.888c-121.728 125.824-277.056 195.584-438.144 195.584-160.384 0-314.88-69.12-436.288-193.792l44.672-45.824c110.848 114.432 249.792 175.68 391.616 175.68 142.464 0 282.24-61.888 393.408-177.536zM576 160c0-35.346-28.654-64-64-64s-64 28.654-64 64v0c0 35.346 28.654 64 64 64s64-28.654 64-64v0z" />
<glyph unicode="&#xe959;" glyph-name="zoom-in" d="M384 512v-128h64v128h128v64h-128v128h-64v-128h-128v-64h128zM608.704 306.048c-51.91-42.266-118.855-67.868-191.78-67.868-168.389 0-304.896 136.507-304.896 304.896s136.507 304.896 304.896 304.896c168.389 0 304.896-136.507 304.896-304.896 0-72.925-25.602-139.87-68.308-192.337l0.44 0.557 225.984-225.984-45.248-45.248-225.984 225.92zM657.856 543.104c0 133.061-107.867 240.928-240.928 240.928s-240.928-107.867-240.928-240.928v0c0-133.043 107.853-240.896 240.896-240.896s240.896 107.853 240.896 240.896v0z" />
<glyph unicode="&#xe95a;" glyph-name="zoom-out" d="M576 512h-320v64h320v-64zM608.704 306.048c-51.91-42.266-118.855-67.868-191.78-67.868-168.389 0-304.896 136.507-304.896 304.896s136.507 304.896 304.896 304.896c168.389 0 304.896-136.507 304.896-304.896 0-72.925-25.602-139.87-68.308-192.337l0.44 0.557 225.984-225.984-45.248-45.248-225.984 225.92zM657.856 543.104c0 133.061-107.867 240.928-240.928 240.928s-240.928-107.867-240.928-240.928v0c0-133.043 107.853-240.896 240.896-240.896s240.896 107.853 240.896 240.896v0z" />
<glyph unicode="&#xe95b;" glyph-name="add-test" d="M512 128c17.673 0 32 14.327 32 32v0 256h256c17.673 0 32 14.327 32 32s-14.327 32-32 32v0h-256v256c0 17.673-14.327 32-32 32s-32-14.327-32-32v0-256h-256c-17.673 0-32-14.327-32-32s14.327-32 32-32v0h256v-256c0-17.673 14.327-32 32-32v0z" />
</font>
</defs>
</svg>
