<?xml version="1.0" standalone="no"?>
<!DOCTYPE svg PUBLIC "-//W3C//DTD SVG 1.1//EN" "http://www.w3.org/Graphics/SVG/1.1/DTD/svg11.dtd" >
<svg xmlns="http://www.w3.org/2000/svg">
<metadata>Generated by IcoMoon</metadata>
<defs>
<font id="o2Attendance" horiz-adv-x="1024">
<font-face units-per-em="1024" ascent="960" descent="-64" />
<missing-glyph horiz-adv-x="1024" />
<glyph unicode="&#x20;" horiz-adv-x="512" d="" />
<glyph unicode="&#xe900;" glyph-name="icon_tongji" d="M431.53 825.764c16.542-14.139 25.93-34.909 25.613-56.667v-339.383c0-20.198 16.374-36.571 36.571-36.571h340.297c21.759 0.317 42.529-9.071 56.667-25.613s20.177-38.521 16.476-59.964c-43.204-226.093-247.775-384.798-477.511-370.451s-412.972 197.27-427.712 426.982c-14.739 229.711 143.616 434.553 369.634 478.143 21.444 3.702 43.422-2.337 59.964-16.476zM603.429 958.903c214.836-36.326 383.149-204.638 419.474-419.474 3.546-21.197-2.41-42.881-16.286-59.293s-34.268-25.89-55.76-25.918h-359.497c-40.396 0-73.143 32.747-73.143 73.143v359.497c0.028 21.492 9.506 41.884 25.918 55.76s38.096 19.832 59.293 16.286z" />
<glyph unicode="&#xe901;" glyph-name="icon_dingwei" d="M511.891 960c-246.931 0-447.891-180.463-447.891-402.208 0-214.079 401.482-594.27 418.557-610.39 7.662-7.274 18.388-11.402 29.553-11.402 0.219 0 0.657 0 0.876 0 11.383 0 22.329 4.718 29.772 12.581l139.008 142.916c184.76 203.070 278.235 359.943 278.235 466.098 0 221.942-200.96 402.405-448.109 402.405zM512 384c-106.116 0-192 85.884-192 192s85.884 192 192 192c106.116 0 192-85.884 192-192s-85.884-192-192-192z" />
<glyph unicode="&#xe902;" glyph-name="icon_tishi" d="M566.132 362.228c0-31.744-25.762-57.506-57.56-57.506-31.816 0-57.578 25.762-57.578 57.506v360.268c0 31.816 25.762 57.506 57.578 57.506 31.798 0 57.56-25.69 57.56-57.506v-360.268zM508.572 123.205c-31.816 0-57.578 25.762-57.578 57.506 0 31.762 25.762 57.506 57.578 57.506 31.798 0 57.56-25.744 57.56-57.506 0-31.744-25.762-57.506-57.56-57.506v0zM976.971 649.236c-26.732 61.799-63.111 115.694-109.155 161.684-46.044 45.972-99.885 82.315-161.469 109.029s-127.497 40.044-197.776 40.044c-70.351 0-136.282-13.33-197.848-40.044-61.584-26.714-115.371-63.057-161.415-109.029-46.044-45.99-82.423-99.885-109.191-161.684-26.786-61.871-40.116-127.874-40.116-198.081 0-70.225 13.33-136.102 40.116-197.56 26.768-61.53 63.147-115.317 109.191-161.289 45.99-45.936 99.831-82.315 161.415-109.047 61.566-26.714 127.497-40.044 197.848-40.044 70.279 0 136.192 13.33 197.776 40.044 61.584 26.732 115.425 63.111 161.469 109.047 45.99 45.972 82.423 99.759 109.155 161.289 26.768 61.458 40.098 127.335 40.098 197.56 0.054 70.207-13.33 136.21-40.098 198.081v0z" />
<glyph unicode="&#xe903;" glyph-name="icon_off" d="M917.483 853.483c31.992-31.992 31.992-83.861 0-115.852l-695.114-695.114c-31.992-31.992-83.861-31.992-115.852 0s-31.992 83.861 0 115.852l695.114 695.114c31.992 31.992 83.861 31.992 115.852 0zM106.913 737.234c-32.211 32.211-32.611 84.034-0.397 116.249v0c31.992 31.992 83.99 31.862 116.249-0.397l694.321-694.321c32.211-32.211 32.611-84.034 0.397-116.249v0c-31.992-31.992-83.99-31.862-116.249 0.397l-694.321 694.321z" />
<glyph unicode="&#xe904;" glyph-name="icon_zengjia_blue2_click" d="M512 960c282.77 0 512-229.23 512-512s-229.23-512-512-512c-282.77 0-512 229.23-512 512s229.23 512 512 512zM499.2 832l-6.461-0.402c-25.375-3.181-44.739-24.868-44.739-51.149v0-255.65h-255.65c-26.32 0-47.974-19.532-51.15-44.778l-0.401-6.422 0.402-6.461c3.181-25.375 24.868-44.739 51.149-44.739v0h255.65v-255.65c0-26.32 19.532-47.974 44.778-51.15l6.422-0.401 6.461 0.402c25.375 3.181 44.739 24.868 44.739 51.149v0 255.65h255.65c26.32 0 47.974 19.532 51.15 44.778l0.401 6.422-0.402 6.461c-3.181 25.375-24.868 44.739-51.149 44.739v0l-255.65 0.064v255.586c0 26.32-19.532 47.974-44.778 51.15l-6.422 0.401z" />
<glyph unicode="&#xe905;" glyph-name="icon_shijian" d="M512 960c-282.77 0-512-229.23-512-512s229.23-512 512-512c282.77 0 512 229.23 512 512 0.074 135.813-53.845 266.086-149.88 362.12s-226.307 149.954-362.12 149.88zM760.192 374.379h-260.462c-26.382 0-47.812 21.305-47.965 47.686v332.41c-1.372 17.958 7.431 35.172 22.795 44.571s34.698 9.399 50.061 0c15.364-9.399 24.167-26.612 22.795-44.571v-285.002h212.776c25-1.91 44.31-22.753 44.31-47.826s-19.311-45.915-44.31-47.826v0.558z" />
<glyph unicode="&#xe906;" glyph-name="icon_bianji" horiz-adv-x="896" d="M837.778 806.966c27.52 29.461-14.766 76.389-14.766 76.389s-23.96 31.661-68.505 64.229c-44.588 32.551-78.902 0-78.902 0l-75.403-75.429 153.162-152.59c0 0 64.568 65.118 84.414 87.402v0zM717.281 691.738l-146.297 150.816-424.043-418.343 152.045-157.681 418.295 425.208zM262.396 245.983l-141.707 139.383-89.138-237.716 230.845 98.333zM89.696 33.739h731.93c26.51 0 48-21.49 48-48s-21.49-48-48-48h-731.93c-26.51 0-48 21.49-48 48s21.49 48 48 48z" />
<glyph unicode="&#xe907;" glyph-name="icon_off_round" d="M512 960c282.77 0 512-229.23 512-512s-229.23-512-512-512c-282.77 0-512 229.23-512 512s229.23 512 512 512zM772.45 711.715c-20.145 14.938-48.577 13.068-66.879-5.234v0l-180.772-180.785-180.772 180.785c-18.329 18.329-46.854 20.062-66.911 5.203l-5.744-4.955-4.986-5.777c-14.938-20.145-13.068-48.577 5.234-66.879v0l180.731-180.761-180.731-180.782c-18.329-18.329-20.062-46.854-5.203-66.911l4.955-5.744 5.777-4.986c20.145-14.938 48.577-13.068 66.879 5.234v0l180.772 180.805 180.772-180.805c18.329-18.329 46.854-20.062 66.911-5.203l5.744 4.955 4.986 5.777c14.938 20.145 13.068 48.577-5.234 66.879v0l-180.795 180.782 180.795 180.761c18.329 18.329 20.062 46.854 5.203 66.911l-4.955 5.744z" />
<glyph unicode="&#xe908;" glyph-name="icon__ok2_click_b" d="M512 960c282.77 0 512-229.23 512-512s-229.23-512-512-512c-282.77 0-512 229.23-512 512s229.23 512 512 512zM847.7 679.262c-20.132 14.951-48.488 13.157-66.698-5.053v0l-344.073-344.033-127.311 127.298c-18.256 18.256-46.761 19.969-66.815 5.107l-5.744-4.956-4.987-5.776c-14.945-20.138-13.115-48.53 5.138-66.783v0l153.564-153.564c1.993-1.993 4.109-3.789 6.322-5.388l3.83-4.388 5.775-4.988c20.132-14.951 48.488-13.157 66.698 5.053v0l380.010 380.010c20.163 20.163 20.060 52.478 0.065 72.473v0z" />
<glyph unicode="&#xe909;" glyph-name="icon_delete_grey" horiz-adv-x="896" d="M835.149 880.050v0c33.749 0 61.136-29.53 61.136-63.449v-64.266h-896.285v64.266c0 33.919 27.353 63.449 61.136 63.449h264.752c0 0 18.269 79.95 40.757 79.95h162.961c22.488 0 40.723-79.95 40.723-79.95h264.82zM239.883 63.681h79.95v528.721h-79.95v-528.721zM399.816 63.681h96.654v528.721h-96.654v-528.721zM576.453 63.681h79.984v528.721h-79.984v-528.721zM122.204 61.742l-81.48 658.376h814.77l-81.446-658.376c0-67.872-54.706-125.742-122.238-125.742h-407.402c-67.464 0-122.204 57.87-122.204 125.742z" />
<glyph unicode="&#xe90a;" glyph-name="icon_choose_people" d="M938.667 170.667c8.533 17.067 17.067 29.867 25.6 46.933 4.267 4.267 4.267 8.533 4.267 12.8 4.267 12.8 12.8 25.6 17.067 38.4 4.267 4.267 4.267 8.533 4.267 17.067 4.267 12.8 8.533 25.6 12.8 34.133 0 4.267 4.267 12.8 4.267 17.067 4.267 12.8 4.267 25.6 8.533 38.4 0 4.267 4.267 12.8 4.267 17.067 4.267 17.067 4.267 38.4 4.267 55.467 0 281.6-230.4 512-512 512s-512-230.4-512-512c0-17.067 0-38.4 4.267-55.467 0-4.267 0-12.8 4.267-17.067 0-12.8 4.267-25.6 4.267-38.4 0-4.267 4.267-12.8 4.267-17.067 4.267-12.8 8.533-25.6 12.8-34.133 0-4.267 4.267-8.533 4.267-17.067 4.267-12.8 8.533-25.6 17.067-38.4 0-4.267 4.267-8.533 4.267-12.8 8.533-17.067 17.067-29.867 25.6-46.933 89.6-140.8 247.467-234.667 426.667-234.667s337.067 93.867 430.933 234.667c-4.267 0-4.267 0 0 0zM507.733 716.8c102.4 0 187.733-85.333 187.733-187.733s-85.333-187.733-187.733-187.733c-102.4 0-187.733 85.333-187.733 187.733s85.333 187.733 187.733 187.733zM196.267 128c55.467 123.733 174.933 204.8 311.467 204.8s256-81.067 311.467-204.8c-81.067-76.8-192-128-311.467-128-119.467 4.267-230.4 51.2-311.467 128z" />
<glyph unicode="&#xe90b;" glyph-name="icon_rili" d="M704 864c0 17.92-14.080 32-32 32s-32-14.080-32-32v-32h64v32zM384 864c0 17.92-14.080 32-32 32s-32-14.080-32-32v-32h64v32zM832 832h-128v-96c0-17.92-14.080-32-32-32s-32 14.080-32 32v96h-256v-96c0-17.92-14.080-32-32-32s-32 14.080-32 32v96h-128c-70.4 0-128-57.6-128-128v-576c0-70.4 57.6-128 128-128h640c70.4 0 128 57.6 128 128v576c0 70.4-57.6 128-128 128zM352 128h-64c-17.92 0-32 14.080-32 32s14.080 32 32 32h64c17.92 0 32-14.080 32-32s-14.080-32-32-32zM352 256h-64c-17.92 0-32 14.080-32 32s14.080 32 32 32h64c17.92 0 32-14.080 32-32s-14.080-32-32-32zM352 384h-64c-17.92 0-32 14.080-32 32s14.080 32 32 32h64c17.92 0 32-14.080 32-32s-14.080-32-32-32zM544 128h-64c-17.92 0-32 14.080-32 32s14.080 32 32 32h64c17.92 0 32-14.080 32-32s-14.080-32-32-32zM544 256h-64c-17.92 0-32 14.080-32 32s14.080 32 32 32h64c17.92 0 32-14.080 32-32s-14.080-32-32-32zM544 384h-64c-17.92 0-32 14.080-32 32s14.080 32 32 32h64c17.92 0 32-14.080 32-32s-14.080-32-32-32zM736 128h-64c-17.92 0-32 14.080-32 32s14.080 32 32 32h64c17.92 0 32-14.080 32-32s-14.080-32-32-32zM736 256h-64c-17.92 0-32 14.080-32 32s14.080 32 32 32h64c17.92 0 32-14.080 32-32s-14.080-32-32-32zM736 384h-64c-17.92 0-32 14.080-32 32s14.080 32 32 32h64c17.92 0 32-14.080 32-32s-14.080-32-32-32zM864 576h-704c-17.92 0-32 14.080-32 32s14.080 32 32 32h704c17.92 0 32-14.080 32-32s-14.080-32-32-32z" />
<glyph unicode="&#xe90c;" glyph-name="icon_arrow_left" horiz-adv-x="1088" d="M302.9 402.511c-24.488 25.161-24.042 66.413 0 91.116l356.761 366.569c24.488 25.161 44.339 17.159 44.339-18.809v-786.635c0-35.549-20.297-43.512-44.339-18.809l-356.761 366.569z" />
<glyph unicode="&#xe90d;" glyph-name="icon_arrow_right" horiz-adv-x="1088" d="M785.1 402.511c24.488 25.161 24.042 66.413 0 91.116l-356.761 366.569c-24.488 25.161-44.339 17.159-44.339-18.809v-786.635c0-35.549 20.297-43.512 44.339-18.809l356.761 366.569z" />
<glyph unicode="&#xe90e;" glyph-name="icon_banciguanli" d="M769.234 316.382c62.696 0 113.683 54.592 113.683 121.723s-51.019 121.755-113.683 121.755c-62.664 0-113.715-54.592-113.715-121.755 0-67.131 50.987-121.723 113.715-121.723zM756.057 138.662l104.813 148.812c-29.764 7.785-60.392 11.783-91.157 11.901-2.489 0-66.844 5.105-133.656-25.461 0 0-8.487-0.861-25.11-26.578-25.429-41.351-64.451-101.718-75.938-121.755-8.072-13.209-28.429-39.756-15.188-67.578 14.549-27.695 26.929-48.689 31.811-52.295h62.824c-1.244 47.636 42.946 125.871 141.601 132.954v0zM1003.907 124.879c-19.335 33.151-62.345 100.506-65.791 106.568-4.531 7.977-18.697 38.32-45.148 46.552-2.872 0.798-6.477 2.010-10.848 3.414l-100.378-142.622c95.847-5.807 143.26-80.596 143.26-132.954l57.527-0.16c0 0 6.094-0.606 36.118 53.859 11.167 28.652-0.989 40.968-14.741 65.345v0zM933.649 900.335h-845.395c-48.699-0.070-88.166-39.522-88.253-88.222v-688c0.106-48.661 39.592-88.048 88.253-88.030h373.944c17.551 0.55 31.494 14.937 31.494 32.497s-13.943 31.947-31.494 32.497h-373.944c-6.146-0.034-12.053 2.379-16.417 6.707s-6.826 10.215-6.843 16.361v538.55h891.979v-402.788c0-17.947 14.549-32.497 32.497-32.497s32.497 14.549 32.497 32.497v552.174c-0.105 48.722-39.595 88.183-88.317 88.253zM64.994 721.594v90.487c0 12.795 10.402 23.196 23.228 23.196h214.252c0-0.255-0.096-0.511-0.096-0.702v-43.361c0.017-15.704 12.725-28.44 28.429-28.493 15.757 0.070 28.493 12.863 28.493 28.62v43.297c0 0.223-0.16 0.447-0.16 0.702h306.941c0-0.255-0.096-0.479-0.096-0.702v-43.361c0.070-15.707 12.786-28.423 28.493-28.493 7.553 0.040 14.787 3.055 20.133 8.391 5.335 5.329 8.331 12.561 8.328 20.101v43.361c0 0.223-0.096 0.447-0.096 0.702h210.87c12.763 0 23.292-10.433 23.292-23.228v-90.519h-892.011zM148.684 272.638h22.239v114.64h-16.272v43.010h16.272v87.137h-19.016v42.563h80.596v-42.563h-18.984v-87.137h15.794v-43.010h-15.794v-114.64h22.143v-42.946h-86.977v42.946zM275.64 331.729l0.032 149.674 26.961 32.8v-139.4l-26.993-43.074zM308.44 246.411l24.121 47.732v277.363h32.545v-296.444l-65.664-50.476 8.998 21.824zM406.649 272.638h22.207v114.64h-15.858v43.010h15.858v87.137h-19.016v42.563h80.66v-42.563h-18.665v-87.137h15.826v-43.010h-15.826v-114.64h21.824v-42.946h-87.009v42.946zM468.356 538.579c-0.302-7.794 3.684-15.129 10.388-19.115s15.052-3.987 21.756 0c6.704 3.987 10.69 11.321 10.388 19.115-0.443 11.424-9.833 20.458-21.266 20.458s-20.823-9.033-21.266-20.458zM389.674 538.611c-0.296-7.817 3.707-15.17 10.434-19.164s15.099-3.987 21.82 0.016c6.721 4.003 10.713 11.363 10.405 19.179-0.452 11.459-9.877 20.513-21.345 20.505s-20.88-9.077-21.314-20.536v0zM332.689 571.283c-0.258-5.934 2.763-11.53 7.865-14.57s11.461-3.034 16.557 0.016c5.096 3.051 8.105 8.653 7.836 14.586-0.392 8.629-7.507 15.42-16.144 15.411s-15.738-6.814-16.113-15.443v0zM466.601 408.687c0-11.85 9.607-21.457 21.457-21.457s21.457 9.607 21.457 21.457c0.303 7.863-3.719 15.263-10.483 19.284s-15.186 4.022-21.949 0c-6.764-4.022-10.786-11.421-10.483-19.284zM391.748 408.687c0.011-7.672 4.115-14.754 10.764-18.58s14.835-3.814 21.473 0.032c6.638 3.846 10.72 10.941 10.709 18.612-0.018 11.859-9.646 21.459-21.505 21.441s-21.459-9.646-21.441-21.505zM472.376 251.133c-0.298-7.898 3.748-15.327 10.544-19.361s15.255-4.028 22.046 0.016c6.791 4.044 10.825 11.479 10.516 19.376-0.454 11.581-9.979 20.732-21.568 20.724s-21.1-9.174-21.538-20.756v0zM385.271 251.133c0.023-7.688 4.136-14.782 10.796-18.622s14.861-3.844 21.525-0.012c6.594 3.898 10.639 10.989 10.639 18.649s-4.045 14.751-10.639 18.649c-6.674 3.793-14.859 3.765-21.507-0.074s-10.763-10.914-10.814-18.591v0zM127.211 251.133c-0.321-7.874 3.691-15.292 10.456-19.335s15.198-4.061 21.981-0.049c6.782 4.012 10.827 11.413 10.542 19.288-0.419 11.548-9.888 20.7-21.443 20.726s-21.065-9.085-21.535-20.63v0zM212.944 251.133c0.623-11.44 10.080-20.396 21.537-20.396s20.914 8.957 21.537 20.396c0 11.895-9.642 21.537-21.537 21.537s-21.537-9.642-21.537-21.537v0zM207.36 408.687c-0.006-7.689 4.091-14.796 10.747-18.646s14.859-3.855 21.521-0.016c6.661 3.839 10.769 10.941 10.774 18.63 0.009 11.886-9.619 21.528-21.505 21.537s-21.528-9.619-21.537-21.505v0zM211.636 538.611c0-11.789 9.557-21.345 21.345-21.345s21.345 9.557 21.345 21.345c0 11.789-9.557 21.345-21.345 21.345s-21.345-9.557-21.345-21.345zM134.071 408.687c-0.31-7.886 3.719-15.31 10.5-19.348s15.227-4.045 22.014-0.016c6.787 4.028 10.826 11.446 10.528 19.333-0.437 11.564-9.934 20.716-21.506 20.724s-21.082-9.129-21.536-20.692zM131.263 538.611c0-11.824 9.585-21.409 21.409-21.409s21.409 9.585 21.409 21.409c0 11.824-9.585 21.409-21.409 21.409s-21.409-9.585-21.409-21.409v0zM576.2 162.656h360.193v-156.821h-360.193v156.821zM840.705 292.069l52.263-14.071-105.993-148.557-88.126 23.292z" />
<glyph unicode="&#xe90f;" glyph-name="icon_changsuo" d="M510.14-63.839h-508.899c-0.32 7.105-1.12 14.372-1.12 21.477-0.16 305.682-0.16 611.203 0 916.885 0 7.105 0.8 14.372 1.12 21.477h508.899l-0.64-423.724c0.16-178.759 0.32-357.356 0.64-536.114v0zM375.073 401.063c15.043 0 30.086 0.323 45.129 0s22.084 6.459 22.084 21.315v81.548c0 16.471-8.482 22.769-23.845 22.607-15.203-0.161-31.686 0-47.529 0-65.293-0.161-60.812 5.167-60.492-60.555 0.32-74.765-7.041-64.269 64.653-64.915zM377.634 772.791h-9.442c-61.612-0.323-57.931 6.944-57.611-57.648 0.32-74.604-8.802-67.176 67.533-67.176 73.134 0 64.333-5.329 64.333 60.555-0.32 74.119 8.322 63.3-64.813 64.269zM376.193 153.352c13.443 0 26.885 0.323 40.328 0 17.763-0.646 26.405 6.621 25.765 25.352-0.64 25.514-0.48 51.028 0 76.865 0 15.825-6.721 23.738-22.724 23.253-17.443-0.323-34.887 0-52.33 0-60.492 0-57.291 6.944-57.131-58.617 0.8-73.796-8.642-66.691 66.093-66.853v0zM131.826 401.063c13.443 0 26.885 0.646 40.328 0 18.084-1.13 26.245 6.298 25.765 25.029-0.64 25.514-0.48 51.189 0 76.865 0.16 15.987-6.881 24.061-22.564 24.061h-85.617c-15.363 0-23.845-6.944-23.365-23.092 0.16-26.321 0.16-52.804 0-79.125 0-15.664 6.401-24.061 22.724-23.253 14.083 0.161 28.326-0.484 42.728-0.484zM131.346 153.352h42.728c16.803 0 24.325 7.751 23.845 25.029-0.64 23.092 0 46.345 0 69.437 0 28.743-2.080 30.52-31.686 30.681h-40.328c-66.573-0.484-59.532 7.105-59.372-60.394 0-71.697-9.442-64.431 64.813-64.754zM133.266 772.791h-9.442c-63.852-0.484-57.611 6.782-57.131-57.648 0.32-75.25-10.722-67.176 69.294-67.66 70.414 0 61.772-4.844 61.772 60.555-0.32 74.281 9.282 63.785-64.493 64.754v0zM586.315-63.839c-0.32 73.474-0.96 146.786-1.12 220.259v294.54c9.442 0.807 15.523 1.615 21.604 1.615h396.397c7.041-0.484 13.923-1.453 20.804-3.068v-513.507h-123.704v210.732h-195.078v-210.57h-118.903zM1023.84 526.372h-436.565v69.759c2.080 1.292 4.321 2.261 6.721 2.745 143.388 0 286.616-0.161 430.004-0.484v-72.020h-0.16z" />
<glyph unicode="&#xe910;" glyph-name="icon_huizong" d="M831.584-24.082c0.555-2.639 0.555-5.278 0-7.918 2.777-15.395-10.551-29.471-29.987-31.67-3.332-0.44-6.664-0.44-9.996 0h-559.202c-19.436-2.199-37.206 8.357-39.983 23.753-0.555 2.639-0.555 5.278 0 7.918-2.777 15.395 10.551 29.471 29.987 31.67 3.332 0.44 6.664 0.44 9.996 0h559.202c19.436 2.199 37.206-8.357 39.983-23.753zM848.222 959.988c96.376 1.156 175.23-80.943 175.778-182.121v-441.716c0-115.054-88.163-208.138-197.134-208.138h-651.089c-96.376-1.156-175.23 80.943-175.778 182.699v467.155c1.095 101.757 79.949 183.278 175.778 182.121h672.445zM284.041 576l-3.959-0.497c-15.395-3.316-25.952-24.539-23.753-47.751v0-95.503c-0.44-3.979-0.44-7.959 0-11.938 2.199-23.212 16.275-39.13 31.67-35.813 2.639-0.663 5.278-0.663 7.918 0 15.395 3.316 25.952 24.539 23.753 47.751v0 95.503c0.44 3.979 0.44 7.959 0 11.938-2.199 23.212-16.275 39.13-31.67 35.813v0l-3.959 0.497zM485.068 703.977l-5.068-0.342h-7.918c-15.395-2.771-25.952-20.505-23.753-39.902v0-239.415c-0.44-3.325-0.44-6.65 0-9.976 2.199-19.397 16.275-32.698 31.67-29.927 2.639-0.554 5.278-0.554 7.918 0 15.395 2.771 25.952 20.505 23.753 39.902v0 239.415c0.44 3.325 0.44 6.65 0 9.976-2.199 19.397-16.275 32.698-31.67 29.927zM732.041 640l-3.959-0.443c-15.395-2.953-25.952-21.85-23.753-42.519v0-170.076c-0.44-3.543-0.44-7.087 0-10.63 2.199-20.669 16.275-34.842 31.67-31.889 2.639-0.591 5.278-0.591 7.918 0 15.395 2.953 25.952 21.85 23.753 42.519v0 170.076c0.44 3.543 0.44 7.087 0 10.63-2.199 20.669-16.275 34.842-31.67 31.889-2.639 0.591-5.278 0.591-7.918 0z" />
<glyph unicode="&#xe911;" glyph-name="icon_kaoiqinyichang" d="M293.547 680.107c-18.773 0-34.133 15.36-34.133 34.133v129.707c0 18.773 15.36 34.133 34.133 34.133s34.133-15.36 34.133-34.133v-129.707c0-18.773-15.36-34.133-34.133-34.133zM730.453 680.107c-18.773 0-34.133 15.36-34.133 34.133v129.707c0 18.773 15.36 34.133 34.133 34.133s34.133-15.36 34.133-34.133v-129.707c0-18.773-15.36-34.133-34.133-34.133zM896 775.68h-97.28v-68.267c0-37.547-30.72-68.267-68.267-68.267s-68.267 30.72-68.267 68.267v68.267h-300.373v-68.267c0-37.547-30.72-68.267-68.267-68.267s-68.267 30.72-68.267 68.267v68.267h-97.28c-51.2 0-93.867-42.667-93.867-93.867v-570.027c0-51.2 42.667-93.867 93.867-93.867h768c51.2 0 93.867 42.667 93.867 93.867v570.027c0 52.907-42.667 93.867-93.867 93.867zM546.133 212.48c0-18.773-15.36-34.133-34.133-34.133s-34.133 15.36-34.133 34.133v22.187c0 18.773 15.36 34.133 34.133 34.133s34.133-15.36 34.133-34.133v-22.187zM512 313.173c-18.773 0-34.133 15.36-34.133 34.133v218.453c0 18.773 15.36 34.133 34.133 34.133s34.133-15.36 34.133-34.133v-218.453c0-18.773-15.36-34.133-34.133-34.133v0z" />
<glyph unicode="&#xe912;" glyph-name="icon_kaoqinzu" d="M842.8 769.9h-63v80.1c0 16.6-13.4 30-30 30.2h-2.2c-16.7 0-30.2-13.6-30.2-30.3v-80.1h-407.7v80.2c0 16.7-13.5 30.2-30.2 30.3h-2.2c-16.7 0-30.3-13.5-30.3-30.3v-80.1h-65.8c-55.5 0-100.4-44.9-100.6-100.4v-553.3c0.1-55.5 45.1-100.4 100.6-100.4h661.5c55.5 0.1 100.4 45 100.5 100.5v553.1c0 55.5-44.9 100.4-100.4 100.5zM756.9 387.4l-275.7-275.7c-7.8-7.7-18.3-12.1-29.3-12.3-10.6 0-20.7 4.2-28.2 11.7l-149.4 149.2c-14.5 15.7-14 40.1 1.1 55.3 15.1 15.1 39.5 15.6 55.3 1.1l121.4-121.4 248.4 248.5c15.7 14.5 40.1 14 55.3-1.1 15.1-15.2 15.5-39.6 1.1-55.3zM872.3 548.5h-718.9v138.7h718.9v-138.7z" />
<glyph unicode="&#xe913;" glyph-name="icon_lock" d="M512 960c-282.762 0-512-229.238-512-512s229.238-512 512-512c282.762 0 512 229.238 512 512s-229.238 512-512 512zM852.981 244.468c-9.155-15.963-29.814-21.48-45.66-12.207l-317.74 183.343c-3.287 1.878-6.221 4.343-8.569 7.16-17.724 7.16-30.401 24.532-30.401 44.838v282.41c0 26.527 21.715 48.242 48.242 48.242s48.242-21.715 48.242-48.242v-282.527c0-2.582-0.235-5.165-0.587-7.63l294.148-169.845c15.963-9.155 21.48-29.696 12.325-45.542v0z" />
<glyph unicode="&#xe914;" glyph-name="icon_meirihuizong" d="M532.812 896c14.562 0 26.845-10.145 30.664-23.355l60.459-104.645h272.444c70.483 0 127.62-57.725 127.62-128.546v-510.908c0-70.994-57.249-128.546-127.62-128.546h-768.76c-70.483 0-127.62 57.725-127.62 128.546v729.29c0 3.713 0.649 7.278 1.833 10.596l-0.327-4.432c0 17.673 13.922 32 31.894 32h499.412zM539.136 768l-37.12 64.064h-438.016l0.056-64.064h475.080z" />
<glyph unicode="&#xe915;" glyph-name="icon_peizhi" d="M976.896 244.224h-349.184c-25.6 0-46.080 20.48-46.080 46.080s20.48 46.080 46.080 46.080h349.184c25.6 0 46.080-20.48 46.080-46.080s-20.48-46.080-46.080-46.080zM976.896 89.6h-349.184c-25.6 0-46.080 20.48-46.080 46.080s20.48 46.080 46.080 46.080h349.184c25.6 0 46.080-20.48 46.080-46.080s-20.48-46.080-46.080-46.080zM976.896-64h-349.184c-25.6 0-46.080 20.48-46.080 46.080s20.48 46.080 46.080 46.080h349.184c25.6 0 46.080-20.48 46.080-46.080s-20.48-46.080-46.080-46.080zM999.424 628.224l-88.064 151.552c-17.408 28.672-54.272 39.936-83.968 24.576l-71.68-28.672c-26.624 20.48-56.32 36.864-88.064 49.152l-10.24 74.752c-2.048 34.816-29.696 60.416-63.488 60.416h-178.176c-33.792 0-61.44-25.6-63.488-59.392l-10.24-74.752c-30.72-13.312-60.416-29.696-88.064-49.152l-71.68 28.672c-29.696 15.36-66.56 4.096-83.968-24.576l-89.088-152.576c-16.384-28.672-7.168-66.56 21.504-83.968l60.416-46.080c-4.096-32.768-4.096-66.56 0-99.328l-61.44-46.080c-28.672-17.408-37.888-55.296-20.48-83.968l89.088-151.552c17.408-28.672 54.272-39.936 84.992-24.576l70.656 28.672c26.624-20.48 56.32-36.864 87.040-49.152l10.24-74.752c2.048-33.792 29.696-60.416 63.488-59.392h70.656c10.24 0 17.408 8.192 18.432 17.408v285.696c-113.664-1.024-206.848 92.16-206.848 206.848s93.184 207.872 207.872 207.872c114.688 0 207.872-93.184 207.872-207.872 0-15.36-2.048-30.72-5.12-46.080h198.656c7.168 0 13.312 6.144 14.336 13.312 2.048 27.648 2.048 54.272-2.048 81.92l60.416 46.080c28.672 18.432 37.888 56.32 20.48 84.992z" />
<glyph unicode="&#xe916;" glyph-name="icon_qingjia" d="M1001.344 338.434c-14.976 35.211-35.584 65.557-61.696 92.574-26.368 26.12-56.576 46.991-91.647 61.972-35.328 15.365-72.192 22.791-112.255 22.791s-77.567-7.554-112.895-22.791c-34.944-14.981-65.28-35.852-91.007-61.972-26.368-26.377-47.104-57.363-62.336-92.574-13.696-32.010-21.376-65.941-22.272-102.049-0.256-3.585-0.256-7.17-0.256-10.755 0-28.681 3.84-56.082 11.776-82.459 3.2-10.115 6.656-20.231 10.88-29.962 8.576-19.846 18.816-38.156 30.848-55.058 9.216-13.316 19.712-25.736 31.488-37.132 3.84-3.969 7.68-7.811 11.776-10.755 23.168-21.511 49.664-38.54 79.231-51.473 35.328-15.365 73.216-22.791 112.895-22.791 40.064 0 77.311 7.554 112.255 22.791 34.944 15.365 65.536 35.852 91.647 62.356 26.112 26.12 46.464 57.106 61.696 92.318 15.232 35.595 22.528 72.727 22.528 112.548-0.128 39.693-7.424 77.209-22.656 112.42zM879.489 141.378h-206.207v264.277h61.696v-200.897h144.383v-63.38h0.128zM180.486 641.508c-16.768 60.051 1.024 69.142 15.872 68.118-2.944 7.939-4.992 17.029-6.912 25.096-4.992 28.041-6.912 54.033 0 79.13 7.936 34.059 25.6 60.179 45.44 81.178 12.8 14.085 27.648 25.992 42.496 36.108 12.928 8.963 25.728 16.005 41.6 20.999 12.032 4.481 24.704 6.786 37.504 7.042 40.576 3.969 72.192-7.042 93.823-20.102 33.664-19.078 45.44-43.022 45.44-43.022s76.159-4.994 50.432-161.204c-1.024-8.067-3.968-16.005-6.912-25.096 14.848 1.024 32.64-7.042 15.872-68.118-11.904-44.046-23.68-56.082-32.64-57.106-7.936-52.113-49.408-119.206-113.663-142.254-26.752-9.987-56.192-9.987-82.943 0-65.152 23.047-105.727 90.141-113.663 142.254-8.064 0.896-19.968 12.932-31.744 56.978v0zM420.356 180.175c6.4-46.351 22.272-89.629 45.44-127.529-10.496-1.28-21.632-2.561-32.768-3.585h-4.736c-6.4-0.384-13.056-1.024-19.712-1.28-13.312-0.64-27.008-1.024-41.088-1.024-7.68 0-14.976 0-22.272 0.384-13.056 0.384-25.728 1.024-38.144 1.921h-4.736c-34.688 3.201-66.176 7.811-95.103 13.7-126.591 25.736-198.527 73.112-198.527 73.112-4.096 23.175-7.936 76.953-7.936 78.233-2.176 27.785-1.28 75.672 23.168 107.683 10.24 14.085 25.088 24.84 45.824 30.346 88.191 21.895 160.383 72.087 167.295 76.953l58.24-187.196 10.752-34.955 9.856-29.962 0.256 0.384 0.256-1.665 30.848 90.397c-58.24 81.818-18.176 100.512 6.016 104.994 7.040 1.024 12.672 1.024 13.952 1.024 0.896 0 7.040 0 14.592-1.024 24.192-4.609 64-23.175 6.016-104.994l30.592-90.397 0.256 1.665 0.256-0.384 1.408 3.201zM514.179 60.2c-4.48-1.024-9.216-1.665-13.952-2.305-12.032 16.901-22.272 35.211-30.848 55.058-4.096 9.731-7.68 19.846-10.88 29.962 14.336-30.474 33.152-58.515 55.68-82.715z" />
<glyph unicode="&#xe917;" glyph-name="icon_yuanshijilu" d="M759.192 334.854c80.017 3.443 157.291-49.351 188.155-128.197 27.206-71.616 9.602-155.627-43.781-209.109-59.099-62.779-156.605-79.879-231.936-40.399-39.78 20.085-72.701 52.794-93.163 92.733 7.887 4.591 16.575 8.493 25.034 12.395 8.459 3.787 17.147 7.804 25.148 12.395 23.777-48.777 74.416-81.142 125.856-81.142 2.629 0 5.144 0.115 7.773 0.23 37.265 0 74.53 16.641 102.308 45.793 26.749 28.004 41.152 64.5 39.666 99.964 1.6 36.037-14.060 72.534-42.866 100.308-30.978 29.84-73.159 45.563-112.71 42.12-42.752-3.328-81.846-26.167-107.338-62.549v0l-1.715-2.525 2.858-1.148c15.775-6.312 28.235-12.395 43.552-21.462-8.916-4.82-17.718-9.526-26.406-14.117-32.464-17.33-63.214-33.627-96.135-53.827-2.972 21.462-5.258 43.038-7.544 63.926-2.629 23.987-5.030 46.711-8.345 68.976 14.289-3.558 26.863-9.641 40.009-19.511v0l2.058-1.607 1.372 2.181c37.722 58.303 102.079 94.57 168.151 94.57zM861.157 960c33.722 0 58.87-31.217 58.87-59.106v0-494.654c0-16.068-154.402-15.642-154.402-17.019-100.336 0-175.868-28.972-226.595-86.917-76.091-86.917 0-273.080 0-292.131 0-17.904-14.517-32.48-32.35-32.48v0h-380.425c-15.203-1.607-31.778 4.935-44.352 17.56-12.46 12.51-19.090 29.266-17.49 44.53v0 837.239c0 3.443-0.114 7.001-0.229 10.444-0.457 16.756-0.914 32.48 10.288 46.481 5.601 12.051 23.662 22.495 45.153 26.053v0zM769.251 252.105c3.429-34.201 3.429-68.288 6.744-102.489 27.206-3.443 54.526-3.443 81.618-6.771 3.429-3.443 10.288-6.771 10.288-10.329-3.429-3.443-6.744-10.329-10.288-13.657l-14.593-1.124-29.16-1.388c-19.433-1.1-38.862-3.292-58.327-11.031-10.288 0-23.777 13.543-20.462 27.315 13.717 40.858 6.973 81.83 13.717 122.918 6.744 6.771 20.462 6.771 20.462-3.443zM493.648 370.547h-267.829c-15.089-3.214-22.062-20.199-21.147-35.464 0.686-12.969 7.544-28.577 24.348-30.069h264.514c18.061 1.492 26.863 19.166 26.291 35.693-0.572 14.805-8.916 29.84-26.177 29.84zM758.163 570.704h-503.195c-5.030-1.607-10.059-1.607-14.86-1.607-4.801-0.115-9.259-0.115-13.717-1.607h-0.114c-17.147-4.706-23.319-22.724-20.576-37.989 1.931-10.916 9.28-23.010 23.494-24.435l528.968-0.011c16.689 3.214 24.12 18.707 24.12 32.824s-7.43 29.61-24.12 32.824zM758.277 770.517h-532.344c-15.432-4.82-21.033-21.921-19.661-35.923 1.257-12.625 8.688-28.004 25.834-29.61h526.285c16.461 1.492 23.891 17.445 23.891 32.594 0 14.805-7.43 31.332-24.005 32.939z" />
<glyph unicode="&#xe918;" glyph-name="icon_quan" d="M512 960c277.435 0 503.331-221.215 511.756-496.084l0.244-15.916c0-277.435-221.215-503.331-496.084-511.756l-15.916-0.244c-282.77 0-512 229.806-512 512 0 277.435 221.215 503.331 496.084 511.756l15.916 0.244zM512 896l-15.371-0.26c-239.84-8.118-432.629-205.471-432.629-447.74 0-246.92 200.576-448 448-448v0l15.371 0.26c239.84 8.118 432.629 205.471 432.629 447.74v0l-0.26 15.371c-8.118 239.84-205.471 432.629-447.74 432.629v0z" />
<glyph unicode="&#xe919;" glyph-name="icon_xuanzhong" d="M512 960c277.435 0 503.331-221.215 511.756-496.084l0.244-15.916c0-277.435-221.215-503.331-496.084-511.756l-15.916-0.244c-282.77 0-512 229.806-512 512 0 277.435 221.215 503.331 496.084 511.756l15.916 0.244zM512 896l-15.371-0.26c-239.84-8.118-432.629-205.471-432.629-447.74 0-241.776 192.306-439.602 432.598-447.74l15.402-0.26 15.371 0.26c234.737 7.945 424.404 197.159 432.368 432.339l0.26 15.402-0.26 15.371c-8.118 239.84-205.471 432.629-447.74 432.629zM512 768c172.080 0 312.436-136.169 319.704-306.146l0.296-13.854c0-172.080-136.169-312.436-306.146-319.704l-13.854-0.296c-176.731 0-320 143.628-320 320 0 172.080 136.169 312.436 306.146 319.704l13.854 0.296z" />
<glyph unicode="&#xe91a;" glyph-name="triangle_left" d="M512 960c-282.77 0-512-229.23-512-512s229.23-512 512-512c282.77 0 512 229.23 512 512s-229.23 512-512 512zM512 917.333c259.206 0 469.333-210.128 469.333-469.333s-210.128-469.333-469.333-469.333c-259.206 0-469.333 210.128-469.333 469.333s210.128 469.333 469.333 469.333zM640 710.258c0 23.979-13.234 29.313-29.559 12.539v0l-237.841-244.379c-16.028-16.468-16.325-43.97 0-60.744v0l237.841-244.379c16.028-16.468 29.559-11.16 29.559 12.539v0z" />
<glyph unicode="&#xe91b;" glyph-name="triangle_right" d="M512 960c282.77 0 512-229.23 512-512s-229.23-512-512-512c-282.77 0-512 229.23-512 512s229.23 512 512 512zM512 917.333c-259.206 0-469.333-210.128-469.333-469.333s210.128-469.333 469.333-469.333c259.206 0 469.333 210.128 469.333 469.333s-210.128 469.333-469.333 469.333zM384 710.258c0 23.979 13.234 29.313 29.559 12.539v0l237.841-244.379c16.028-16.468 16.325-43.97 0-60.744v0l-237.841-244.379c-16.028-16.468-29.559-11.16-29.559 12.539v0z" />
<glyph unicode="&#xe91c;" glyph-name="icon_arrow_down" d="M460.991 238.9c25.161-24.488 66.413-24.042 91.116 0l366.569 356.761c25.161 24.488 17.159 44.339-18.809 44.339h-786.635c-35.549 0-43.512-20.297-18.809-44.339l366.569-356.761z" />
<glyph unicode="&#xe91d;" glyph-name="icon_arrow_up2" horiz-adv-x="1088" d="M466.511 657.1c25.161 24.488 66.413 24.042 91.116 0l366.569-356.761c25.161-24.488 17.159-44.339-18.809-44.339h-786.635c-35.549 0-43.512 20.297-18.809 44.339l366.569 356.761z" />
<glyph unicode="&#xe91e;" glyph-name="icon_bumen3" horiz-adv-x="1170" d="M617.066 419.334c-0.094 1.091 0.661 2.096 1.821 2.426 79.645 22.011 139.010 107.211 139.010 208.96 0 118.457-80.46 214.491-179.724 214.491s-179.724-96-179.724-214.491c0-101.714 59.365-186.949 139.010-208.96 1.161-0.33 1.916-1.336 1.821-2.426s-1.012-1.979-2.216-2.145c-174.418-23.714-310.998-123.040-318.378-335.371-0.1-4.806 24.453-69.732 28.224-73.143s59.581-18.159 64.932-18.103h566.018c5.351-0.056 56.026 14.692 59.797 18.103s0.1 68.337 0 73.143c-7.379 212.331-143.96 311.657-318.378 335.371-1.204 0.166-2.122 1.055-2.216 2.145zM859.874 631.589c0-101.554-32.514-175.543-79.646-210.286-3.771-2.78-5.603-7.483-4.706-12.081s4.362-8.268 8.9-9.428c125.086-34.514 202.72-125.491 224.651-249.937 1.063-5.98 8.509-73.861 14.583-73.825h134.514c3.33-0.051 6.541 1.241 8.906 3.585s3.687 5.543 3.665 8.873c-4.012 201.749-105.223 367.714-248 406.96-4.826 1.16-8.452 5.154-9.141 10.069s1.699 9.752 6.021 12.194c55.531 32.903 89.451 109.863 89.451 198.617 0 118.457-83.749 202.023-172.914 202.023-39.006 0-74.789-18.389-102.697-49.006-2.565-2.753-3.705-6.542-3.085-10.254s2.93-6.924 6.251-8.694c66.983-35.931 123.246-118.309 123.246-218.811zM310.080 631.589c0-101.28 32.331-175.131 79.246-209.966 3.842-2.84 5.706-7.637 4.79-12.326s-4.448-8.432-9.076-9.617c-124.777-34.754-194.697-134.821-216.617-259.095-1.146-6.021-16.214-64.528-22.343-64.461h-134.046c-3.394-0.054-6.665 1.265-9.072 3.658s-3.743 5.658-3.706 9.052c4.081 201.314 104.961 366.96 247.349 406.526 4.854 1.263 8.467 5.327 9.153 10.296s-1.692 9.86-6.022 12.39c-55.189 33.143-88.857 109.829-88.857 198.263 0 118.457 83.749 202.023 172.903 202.023 38.926 0 74.629-18.286 102.503-48.789 2.613-2.803 3.776-6.662 3.147-10.442s-2.978-7.055-6.359-8.861c-66.88-35.977-122.994-118.274-122.994-218.651z" />
<glyph unicode="&#xe928;" glyph-name="icon_close" d="M173.277 878.128l0.207-0.207 337.818-339.36 337.881 339.36c25.086 24.971 65.329 24.879 90.093 0v0c24.959-25.074 24.959-65.436 0.104-90.405v0l-337.966-339.515 337.966-339.516c24.855-24.969 24.855-65.331 0-90.301l-0.104-0.104c-24.764-24.879-65.007-24.971-89.886-0.207l-0.207 0.207-337.881 339.426-337.818-339.426c-25.086-24.971-65.329-24.879-90.093 0v0c-24.959 25.074-24.959 65.436-0.104 90.405v0l337.903 339.516-337.903 339.515c-24.855 24.969-24.855 65.331 0 90.301l0.104 0.104c24.764 24.879 65.007 24.971 89.886 0.207z" />
<glyph unicode="&#xe95f;" glyph-name="piechart" d="M463.964 928.057v-506.274c0.061-3.19 2.598-5.78 5.786-5.907h522.186c0-271.098-227.823-479.876-499.644-479.876s-492.291 212.635-492.291 483.854c0 271.218 196.965 508.203 463.964 508.203zM527.972 960c271.821 0 495.908-208.778 495.908-479.996h-490.122c-1.56 0-3.047 0.656-4.098 1.808-1.084 1.088-1.688 2.562-1.688 4.098v474.090z" />
<glyph unicode="&#xe96d;" glyph-name="true" horiz-adv-x="1536" d="M23.049 410.297c-73.506 75.945 45.857 189.203 119.539 112.881 158.75-164.171 214.922-225.942 373.66-390.018 164.171 164.96 635.718 637.109 799.889 802.164 74.731 75.073 194.106-38.149 119.457-112.987-184.395-185.349-676.060-677.804-860.537-863.071-30.63-30.63-89.263-31.408-119.539 0-178.349 184.477-254.297 266.566-432.469 451.031z" />
<glyph unicode="&#xe975;" glyph-name="accept" horiz-adv-x="1170" d="M421.611 960c122.856 0 219.077-93.524 219.077-212.956v0l0.013-149.058c-121.416-78.061-201.843-214.345-201.843-369.414 0-111.547 41.617-213.374 110.171-290.801l-454.375 0.046c-52.192 0-94.653 42.208-94.653 94.091v0l1.175 247.262c0.005 13.975 8.073 26.707 20.749 32.747v0l264.784 126.057-77.4 35.054c-4.409 6.144-6.779 86.646-6.774 94.195v179.821c0 119.432 96.223 212.956 219.077 212.956zM877.714 521.143c161.583 0 292.571-130.989 292.571-292.571s-130.989-292.571-292.571-292.571c-161.583 0-292.571 130.989-292.571 292.571s130.989 292.571 292.571 292.571zM1084.784 389.427c-23.037 17.059-55.611 14.841-76.623-6.171v0l-174.333-174.287-51.495 51.449c-20.829 20.829-53.226 22.607-76.113 5.589l-6.56-5.669-5.702-6.598c-17.098-22.997-15.111-55.34 5.623-76.074v0l64.41-64.518c0.363-14.459 6.078-28.737 17.077-39.736v0l6.604-5.696c23.037-17.059 55.611-14.841 76.623 6.171l-4.048-3.675c6.33 2.844 12.263 6.87 17.466 12.074v0l5.702 6.598c2.341 3.148 4.324 6.472 5.95 9.916l201.546 201.704c23.368 23.368 23.326 60.376 0.475 83.227v0z" />
<glyph unicode="&#xe989;" glyph-name="enlarge" d="M1024 960h-416l160-160-192-192 96-96 192 192 160-160zM1024-64v416l-160-160-192 192-96-96 192-192-160-160zM0-64h416l-160 160 192 192-96 96-192-192-160 160zM0 960v-416l160 160 192-192 96 96-192 192 160 160z" />
<glyph unicode="&#xe98a;" glyph-name="shrink" d="M576 512h416l-160 160 192 192-96 96-192-192-160 160zM576 384v-416l160 160 192-192 96 96-192 192 160 160zM448 384.004h-416l160-160-192-192 96-96 192 192 160-160zM448 512v416l-160-160-192 192-96-96 192-192-160-160z" />
<glyph unicode="&#xe999;" glyph-name="icon_sousuo" d="M64.009 536.536c0 197.559 157.965 358.327 352.040 358.327 194.147 0 352.040-160.768 352.040-358.327 0-197.614-157.894-358.309-352.040-358.309-194.075 0-352.040 160.695-352.040 358.309zM992.939 47.027l-229.969 239.616c-2.246 2.359-5.12 3.383-7.635 5.339 48.2 69.083 76.764 153.326 76.764 244.553 0 233.819-186.26 423.461-416.049 423.461-229.771 0-416.049-189.641-416.049-423.461 0-233.856 186.278-423.461 416.049-423.461 95.016 0 182.272 32.713 252.281 87.278 1.258-1.518 1.761-3.346 3.072-4.773l229.951-239.653c12.504-13.038 29.139-19.584 45.757-19.584 16.132 0 32.337 6.181 44.769 18.56 25.259 25.070 25.762 66.359 1.060 92.123z" />
<glyph unicode="&#xe9ab;" glyph-name="clock2" horiz-adv-x="1088" d="M535.23 960c-282.77 0-512-229.23-512-512s229.23-512 512-512c282.77 0 512 229.23 512 512 0.074 135.813-53.845 266.086-149.88 362.12s-226.307 149.954-362.12 149.88zM783.421 374.379h-260.462c-26.382 0-47.812 21.305-47.965 47.686v332.41c-1.372 17.958 7.431 35.172 22.795 44.571s34.698 9.399 50.061 0c15.364-9.399 24.167-26.612 22.795-44.571v-285.002h212.776c25-1.91 44.31-22.753 44.31-47.826s-19.311-45.915-44.31-47.826v0.558z" />
<glyph unicode="&#xe9ba;" glyph-name="config" d="M869.939 660.555c19.657-35.014 54.978-55.899 94.291-55.899 32.864 0 59.769-27.519 59.769-61.55v-190.365c0-33.785-26.905-61.428-59.769-61.428-39.436 0-74.635-20.947-94.291-56.022-19.645-34.721-19.645-77.201 0-111.921 16.5-29.329 6.803-66.456-21.93-83.972l-160.020-95.090c-13.729-8.085-30.147-10.271-45.513-6.059s-28.375 14.463-36.064 28.419c-18.758 34.581-54.951 56.109-94.291 56.084-39.314 0-74.635-20.886-94.291-55.961-10.431-18.914-30.308-30.675-51.907-30.714-10.449 0.035-20.697 2.879-29.669 8.231l-160.265 95.090c-13.879 8.231-23.913 21.648-27.888 37.287-4.216 15.741-2.075 32.508 5.959 46.685 19.645 34.721 19.645 77.201 0 111.921-18.81 34.515-54.984 55.983-94.291 55.961-32.864 0-59.769 27.642-59.769 61.489v190.426c0 33.785 26.905 61.428 59.769 61.428 39.314 0 74.635 20.947 94.291 56.022 19.645 34.721 19.645 77.201 0 111.921-16.538 29.29-6.861 66.418 21.868 83.911l160.204 95.152c13.732 8.129 30.179 10.325 45.563 6.085s28.383-14.552 36.013-28.567c18.78-34.559 54.96-56.076 94.291-56.076s75.513 21.517 94.291 56.076c7.619 14.058 20.633 24.41 36.044 28.673s31.894 2.073 45.655-6.068l160.020-95.213c28.564-16.954 38.392-54.609 21.93-83.972-19.645-34.721-19.645-77.201 0-111.921v-0.062zM512 161.393c158.223 0.203 286.447 128.399 286.684 286.623-0.304 158.205-128.479 286.379-286.684 286.684-158.218-0.271-286.413-128.465-286.684-286.684 0.271-158.218 128.465-286.413 286.684-286.684v0.062zM512 291.559c-86.353 0.135-156.321 70.104-156.457 156.457 0.135 86.353 70.104 156.321 156.457 156.457 86.353-0.135 156.321-70.104 156.457-156.457-0.102-86.366-70.090-156.355-156.457-156.457v0z" />
<glyph unicode="&#xea0d;" glyph-name="cancel-circle" d="M512 960c-282.77 0-512-229.23-512-512s229.23-512 512-512 512 229.23 512 512-229.23 512-512 512zM512 32c-229.75 0-416 186.25-416 416s186.25 416 416 416 416-186.25 416-416-186.25-416-416-416zM672 704l-160-160-160 160-96-96 160-160-160-160 96-96 160 160 160-160 96 96-160 160 160 160z" />
<glyph unicode="&#xea52;" glyph-name="checkbox-checked" d="M896 960h-768c-70.4 0-128-57.6-128-128v-768c0-70.4 57.6-128 128-128h768c70.4 0 128 57.6 128 128v768c0 70.4-57.6 128-128 128zM448 165.49l-237.254 237.256 90.51 90.508 146.744-146.744 306.746 306.746 90.508-90.51-397.254-397.256z" />
<glyph unicode="&#xea53;" glyph-name="checkbox-unchecked" d="M896 960h-768c-70.4 0-128-57.6-128-128v-768c0-70.4 57.6-128 128-128h768c70.4 0 128 57.6 128 128v768c0 70.4-57.6 128-128 128zM896 64h-768v768h768v-768z" />
<glyph unicode="&#xea54;" glyph-name="radio-checked" d="M512 960c-282.77 0-512-229.23-512-512s229.23-512 512-512 512 229.23 512 512-229.23 512-512 512zM512 64c-212.078 0-384 171.922-384 384s171.922 384 384 384c212.078 0 384-171.922 384-384s-171.922-384-384-384zM320 448c0 106.039 85.961 192 192 192s192-85.961 192-192c0-106.039-85.961-192-192-192s-192 85.961-192 192z" />
<glyph unicode="&#xea56;" glyph-name="radio-unchecked" d="M512 960c-282.77 0-512-229.23-512-512s229.23-512 512-512 512 229.23 512 512-229.23 512-512 512zM512 64c-212.078 0-384 171.922-384 384s171.922 384 384 384c212.078 0 384-171.922 384-384s-171.922-384-384-384z" />
</font>
</defs>
</svg>
