<svg width="40px" height="40px" viewBox="0 0 40 40" version="1.1" xmlns="http://www.w3.org/2000/svg" xmlns:xlink="http://www.w3.org/1999/xlink">
    <g stroke="none" stroke-width="1" fill="none" fill-rule="evenodd">
        <g transform="translate(-581.000000, -820.000000)" fill="#4A90E2">
            <g id="logo_o2_40" transform="translate(581.000000, 820.000000)">
                <path d="M20,0 C31.045695,0 40,8.954305 40,20 C40,31.045695 31.045695,40 20,40 C8.954305,40 0,31.045695 0,20 C0,8.954305 8.954305,0 20,0 Z M29.6281171,9 L10.1603118,9 C9.95957327,9.00180541 9.77096476,9.05410576 9.60644715,9.14477099 C9.59798431,9.14939734 9.5896343,9.15413653 9.5812843,9.15904498 C9.56554342,9.16818485 9.55008463,9.17783249 9.5347951,9.18764938 L9.50004103,9.21106324 L9.50004103,9.21106324 C9.48909576,9.21873622 9.47826332,9.22657845 9.46748731,9.23470277 C9.45902447,9.24107811 9.45061804,9.24762271 9.44238088,9.25422373 C9.36965687,9.312843 9.30996564,9.37281633 9.25715751,9.43860081 L9.24587372,9.45298764 C9.23961122,9.46094271 9.23351798,9.46901062 9.22742473,9.47724778 C9.21157101,9.4987434 9.19645074,9.52085962 9.18206391,9.54342719 C9.17557573,9.55369544 9.16920039,9.56407652 9.16299431,9.57451403 C9.15814228,9.58280761 9.15329025,9.59115761 9.14855106,9.59962045 C9.09004462,9.70416474 9.04699697,9.81863876 9.02279325,9.93988306 C9.0211571,9.94789455 9.01963379,9.95590604 9.01822332,9.96403036 C9.0062625,10.0311125 9,10.1002257 9,10.1708058 L9,14.1028671 C9,14.7495974 9.52430117,15.2737293 10.1711443,15.2737293 L23.94831,15.2736729 C24.3802534,15.2873827 24.7262707,15.6416936 24.7262707,16.0767964 L24.7262143,23.8579269 C24.725368,23.8794225 24.7262707,23.9012002 24.7262707,23.9232036 C24.7262707,24.3667128 24.3667128,24.7262143 23.9232036,24.7262143 C23.8955583,24.7262143 23.8682515,24.7248038 23.8412833,24.7220957 L16.0400113,24.7262143 L16.0400113,24.6893727 C15.6159666,24.6840129 15.2737857,24.3385034 15.2737857,23.913161 C15.2737857,23.4903011 15.6119044,23.1463712 16.0324511,23.1370621 L16.0400113,23.1369493 L18.0039545,23.1267939 C19.6089604,23.1267939 20.9094733,21.8257168 20.9094733,20.2207673 L20.9094733,19.7691901 C20.9094733,18.1637893 19.6086218,16.8631071 18.0039545,16.8631071 L14.1031492,16.8631071 C13.4556291,16.8631071 12.9315536,17.3872955 12.9315536,18.0339693 L12.9315536,18.047792 C12.9315536,18.6944658 13.4560804,19.2187106 14.1031492,19.2187106 L15.0983228,19.2186542 L17.7531723,19.225368 C18.1818434,19.225368 18.5294968,19.5729087 18.5294968,20.0016361 C18.5294968,20.4304201 18.1818434,20.7779043 17.7531723,20.7779043 L15.0879417,20.7779043 L14.1031492,20.7712469 C13.4556291,20.7712469 12.9315536,21.2954352 12.9315536,21.9421655 L12.9315536,25.8975842 C12.9315536,26.5443145 13.4559112,27.0684464 14.1026979,27.0684464 L25.9171052,27.0682772 C26.0223265,27.0665282 26.1241627,27.0509001 26.2208647,27.0231984 L26.2389188,27.0178386 C26.2430374,27.0165974 26.247156,27.0152998 26.2512181,27.0140586 C26.2650408,27.0096579 26.278807,27.0050315 26.2923475,27.0001795 L26.3099502,26.9937478 C26.3344925,26.9842694 26.3482587,26.9786275 26.3618557,26.9727035 L26.3788378,26.9652562 C26.7855619,26.7816126 27.0684464,26.3724624 27.0684464,25.8973586 L27.0684464,14.1026979 C27.0684464,13.9970252 27.054511,13.8947377 27.0282761,13.7973586 L27.0231984,13.7791353 C26.8803457,13.2876135 26.4304611,12.9315536 25.8973586,12.9315536 L12.173678,12.9315536 L12.1737344,12.8930194 C12.1565831,12.8942042 12.1393189,12.894712 12.121829,12.894712 C11.6931015,12.894712 11.3455609,12.5471714 11.3455609,12.1184439 C11.3455609,11.6897164 11.6931015,11.3421757 12.121829,11.3421757 C12.1393189,11.3421757 12.1565831,11.3427399 12.1737344,11.3438683 L27.8798636,11.3421757 C28.3117505,11.3558291 28.6578243,11.7100836 28.6578243,12.1451864 C28.6578243,12.167754 28.6569216,12.1900959 28.6550598,12.2121557 L28.6578243,27.7894804 L28.6578243,27.8547571 L28.6578243,27.8547571 C28.6578243,28.2982664 28.2982664,28.6578243 27.8548136,28.6578243 L12.1452429,28.6578243 L12.1452429,28.6578243 C11.7076576,28.6578243 11.3517669,28.3078012 11.3424014,27.8724163 L11.3421757,18.0342514 C11.3421757,17.3872391 10.8178745,16.8631071 10.1711443,16.8631071 C9.52418834,16.8631071 9,17.3874647 9,18.0342514 L9,29.8288557 C9,30.0136842 9.04282197,30.1884136 9.11904396,30.3439042 C9.3095707,30.7325742 9.70907319,31 10.1711443,31 L29.8487152,31 C30.4010566,30.9906909 30.8602503,30.5993127 30.9733138,30.0786788 L30.9813818,30.03817 L30.9813818,30.03817 C30.9936247,29.9702416 31,29.9002821 31,29.8288557 L31,10.1710879 C31,9.52819408 30.4813407,9.00558547 29.8392932,9 L29.8185311,9 C29.7864851,9.00028209 29.7547212,9.00186182 29.7234087,9.00468277 C29.6919834,9.00186182 29.6602195,9.00028209 29.6281171,9 Z" id="形状结合"></path>
            </g>
        </g>
    </g>
</svg>
