<?xml version="1.0" standalone="no"?>
<!DOCTYPE svg PUBLIC "-//W3C//DTD SVG 1.1//EN" "http://www.w3.org/Graphics/SVG/1.1/DTD/svg11.dtd" >
<svg xmlns="http://www.w3.org/2000/svg">
<metadata>Generated by IcoMoon</metadata>
<defs>
<font id="o2tablet" horiz-adv-x="1024">
<font-face units-per-em="1024" ascent="960" descent="-64" />
<missing-glyph horiz-adv-x="1024" />
<glyph unicode="&#x20;" horiz-adv-x="512" d="" />
<glyph unicode="&#xe900;" glyph-name="imageClipper" d="M768 277.333h85.333v384c0 47.128-38.205 85.333-85.333 85.333v0h-469.333v-85.333h469.333v-384zM256 234.667h640c23.564 0 42.667-19.103 42.667-42.667s-19.103-42.667-42.667-42.667v0h-42.667v-42.667c0-23.564-19.103-42.667-42.667-42.667s-42.667 19.103-42.667 42.667v0 42.667h-512c-47.128 0-85.333 38.205-85.333 85.333v0 426.667h-42.667c-23.564 0-42.667 19.103-42.667 42.667s19.103 42.667 42.667 42.667v0h42.667v42.667c0 23.564 19.103 42.667 42.667 42.667s42.667-19.103 42.667-42.667v0-554.667zM384 460.8l55.467-85.333 128 200.533 157.867-256h-426.667l85.333 140.8z" />
<glyph unicode="&#xe901;" glyph-name="cutpic" d="M832 960c106.039 0 192-85.961 192-192v-640c0-106.039-85.961-192-192-192h-640c-106.039 0-192 85.961-192 192v640c0 106.039 85.961 192 192 192h640zM467.502 512l-71.381-136.249c-33.059 8.599-67.877 0.496-94.956-22.101-50.175-41.853-60.040-120.601-22.055-175.886s109.456-66.154 159.631-24.301c50.175 41.853 60.040 120.601 22.055 175.886v0l51.203 97.811-44.498 84.84zM677.263 763.296c-25.639 9.683-58.414 3.939-73.204-12.848v0l-86.939-98.417-55.829 95.459-4.315 6.053-4.558 4.6c-13.166 11.17-32.308 13.168-47.736 4.337-19.811-11.329-26.564-36.365-15.095-55.934v0l223.309-382.144c-22.7-28.404-31.371-65.339-23.645-100.713 14.309-65.442 79.612-107.067 145.878-92.933 66.25 14.134 108.39 78.657 94.081 144.098s-79.612 107.067-145.878 92.933v0l-145.988 249.685 36.492-41.472 123.029 139.423 4.066 5.758c8.609 15.958-1.39 33.654-23.793 42.101v0.014z" />
<glyph unicode="&#xe902;" glyph-name="size" d="M899.2 313.6c68.925 0 124.8-55.875 124.8-124.8s-55.875-124.8-124.8-124.8h-774.4c-68.925 0-124.8 55.875-124.8 124.8s55.875 124.8 124.8 124.8h774.4zM940.8 646.4c45.95 0 83.2-37.25 83.2-83.2s-37.25-83.2-83.2-83.2h-857.6c-45.95 0-83.2 37.25-83.2 83.2s37.25 83.2 83.2 83.2h857.6zM982.4 896c22.975 0 41.6-18.625 41.6-41.6s-18.625-41.6-41.6-41.6h-940.8c-22.975 0-41.6 18.625-41.6 41.6s18.625 41.6 41.6 41.6h940.8z" />
<glyph unicode="&#xe903;" glyph-name="reset" horiz-adv-x="1088" d="M936.421 43.789c29.765 0 53.895-24.129 53.895-53.895s-24.129-53.895-53.895-53.895h-754.526c-29.765 0-53.895 24.129-53.895 53.895s24.129 53.895 53.895 53.895h754.526zM559.158 960c238.117 0 431.158-193.041 431.158-431.158s-193.041-431.158-431.158-431.158c-238.117 0-431.158 193.041-431.158 431.158 0 21.647 17.549 39.196 39.196 39.196s39.196-17.549 39.196-39.196c0-194.825 157.941-352.765 352.765-352.765s352.765 157.941 352.765 352.765c0 194.825-157.941 352.765-352.765 352.765-80.738 0.105-159.053-27.575-221.791-78.392h65.046c21.773 0 39.157-17.54 39.157-39.196 0-10.426-4.154-20.423-11.543-27.778s-17.404-11.465-27.83-11.418h-156.412c-21.748 0-39.381 17.625-39.392 39.373v156.412c0 21.715 17.54 39.392 39.196 39.392 21.793 0 39.196-17.541 39.196-39.157v-59.363c77.195 63.788 174.234 98.631 274.373 98.52z" />
<glyph unicode="&#xe904;" glyph-name="color" d="M653.12 367.158h-346.24l-85.333-215.579h-114.88l320 808.421h106.667l320-808.421h-114.88l-85.333 215.579zM610.453 474.947l-130.453 329.566-130.453-329.566h260.907zM0 43.789h960v-107.789h-960v107.789z" />
<glyph unicode="&#xe905;" glyph-name="pencil" d="M864 960c88.364 0 160-71.634 160-160 0-36.020-11.91-69.258-32-96l-64-64-224 224 64 64c26.742 20.090 59.978 32 96 32zM64 224l-64-288 288 64 592 592-224 224-592-592zM715.578 596.422l-448-448-55.156 55.156 448 448 55.156-55.156z" />
<glyph unicode="&#xe90c;" glyph-name="paint-format" d="M1024 384v384h-192v64c0 35.2-28.8 64-64 64h-704c-35.2 0-64-28.8-64-64v-192c0-35.2 28.8-64 64-64h704c35.2 0 64 28.8 64 64v64h128v-256h-576v-128h-32c-17.674 0-32-14.326-32-32v-320c0-17.674 14.326-32 32-32h128c17.674 0 32 14.326 32 32v320c0 17.674-14.326 32-32 32h-32v64h576zM768 768h-704v64h704v-64z" />
<glyph unicode="&#xe90d;" glyph-name="image" d="M959.884 832c0.040-0.034 0.082-0.076 0.116-0.116v-767.77c-0.034-0.040-0.076-0.082-0.116-0.116h-895.77c-0.040 0.034-0.082 0.076-0.114 0.116v767.772c0.034 0.040 0.076 0.082 0.114 0.114h895.77zM960 896h-896c-35.2 0-64-28.8-64-64v-768c0-35.2 28.8-64 64-64h896c35.2 0 64 28.8 64 64v768c0 35.2-28.8 64-64 64v0zM832 672c0-53.020-42.98-96-96-96s-96 42.98-96 96 42.98 96 96 96 96-42.98 96-96zM896 128h-768v128l224 384 256-320h64l224 192z" />
<glyph unicode="&#xe90e;" glyph-name="images" horiz-adv-x="1152" d="M1088 832h-64v64c0 35.2-28.8 64-64 64h-896c-35.2 0-64-28.8-64-64v-768c0-35.2 28.8-64 64-64h64v-64c0-35.2 28.8-64 64-64h896c35.2 0 64 28.8 64 64v768c0 35.2-28.8 64-64 64zM128 768v-640h-63.886c-0.040 0.034-0.082 0.076-0.114 0.116v767.77c0.034 0.040 0.076 0.082 0.114 0.114h895.77c0.040-0.034 0.082-0.076 0.116-0.116v-63.884h-768c-35.2 0-64-28.8-64-64v0zM1088 0.116c-0.034-0.040-0.076-0.082-0.116-0.116h-895.77c-0.040 0.034-0.082 0.076-0.114 0.116v767.77c0.034 0.040 0.076 0.082 0.114 0.114h895.77c0.040-0.034 0.082-0.076 0.116-0.116v-767.768zM960 608c0-53.020-42.98-96-96-96s-96 42.98-96 96 42.98 96 96 96 96-42.98 96-96zM1024 64h-768v128l224 384 256-320h64l224 192z" />
<glyph unicode="&#xe926;" glyph-name="icon" d="M0 768c0 56.32 46.080 102.4 102.4 102.4h819.2c56.554 0 102.4-45.846 102.4-102.4v0-614.4c0-56.554-45.846-102.4-102.4-102.4v0h-819.2c-56.554 0-102.4 45.846-102.4 102.4v0 614.4zM563.2 307.2l-153.6 153.6-307.2-307.2h819.2l-256 256-102.4-102.4zM768 512c56.554 0 102.4 45.846 102.4 102.4s-45.846 102.4-102.4 102.4v0c-56.554 0-102.4-45.846-102.4-102.4s45.846-102.4 102.4-102.4v0z" />
<glyph unicode="&#xe929;" glyph-name="close1" d="M981.333 426.667c0 129.579-52.565 246.997-137.472 331.861s-202.283 137.472-331.861 137.472-246.997-52.565-331.861-137.472-137.472-202.283-137.472-331.861 52.565-246.997 137.472-331.861 202.283-137.472 331.861-137.472 246.997 52.565 331.861 137.472 137.472 202.283 137.472 331.861zM896 426.667c0-106.069-42.923-201.984-112.469-271.531s-165.461-112.469-271.531-112.469-201.984 42.923-271.531 112.469-112.469 165.461-112.469 271.531 42.923 201.984 112.469 271.531 165.461 112.469 271.531 112.469 201.984-42.923 271.531-112.469 112.469-165.461 112.469-271.531zM353.835 524.502l97.835-97.835-97.835-97.835c-16.683-16.683-16.683-43.691 0-60.331s43.691-16.683 60.331 0l97.835 97.835 97.835-97.835c16.683-16.683 43.691-16.683 60.331 0s16.683 43.691 0 60.331l-97.835 97.835 97.835 97.835c16.683 16.683 16.683 43.691 0 60.331s-43.691 16.683-60.331 0l-97.835-97.835-97.835 97.835c-16.683 16.683-43.691 16.683-60.331 0s-16.683-43.691 0-60.331z" />
<glyph unicode="&#xe92a;" glyph-name="disable" d="M0 460.8c0 282.77 229.23 512 512 512s512-229.23 512-512v0c0-282.77-229.23-512-512-512s-512 229.23-512 512v0zM835.584 711.68l-574.976-573.952c68.628-53.726 156.18-86.154 251.306-86.154 226.216 0 409.6 183.384 409.6 409.6 0 94.998-32.34 182.442-86.612 251.924l0.682-0.906zM763.392 784.384c-68.81 54.208-156.742 86.945-252.321 86.945-226.216 0-409.6-183.384-409.6-409.6 0-95.578 32.737-183.511 87.609-253.196l-0.664 0.875 574.976 574.976z" />
<glyph unicode="&#xe970;" glyph-name="picture" horiz-adv-x="1088" d="M124.444-64c-47.128 0-85.333 38.205-85.333 85.333v853.333c0 47.128 38.205 85.333 85.333 85.333h853.333c47.128 0 85.333-38.205 85.333-85.333v-853.333c0-47.128-38.205-85.333-85.333-85.333h-853.333zM206.001 239.77h690.22c35.346 0 64 28.654 64 64v489.34c0 35.346-28.654 64-64 64h-690.22c-35.346 0-64-28.654-64-64v-489.34c0-35.346 28.654-64 64-64zM489.867 445.55l191.081 259.675 63.694-102.89 63.694 19.598 48.995-274.373h-641.837l171.483 161.684 102.89-63.694zM303.685 626.833c-44.096 0-83.292 29.397-83.292 73.493 0 39.196 39.196 73.493 83.292 73.493s78.392-34.297 78.392-73.493c0-44.096-34.297-73.493-78.392-73.493v0z" />
<glyph unicode="&#xe984;" glyph-name="spinner11" d="M1024 576h-384l143.53 143.53c-72.53 72.526-168.96 112.47-271.53 112.47s-199-39.944-271.53-112.47c-72.526-72.53-112.47-168.96-112.47-271.53s39.944-199 112.47-271.53c72.53-72.526 168.96-112.47 271.53-112.47s199 39.944 271.528 112.472c6.056 6.054 11.86 12.292 17.456 18.668l96.32-84.282c-93.846-107.166-231.664-174.858-385.304-174.858-282.77 0-512 229.23-512 512s229.23 512 512 512c141.386 0 269.368-57.326 362.016-149.984l149.984 149.984v-384z" />
<glyph unicode="&#xe998;" glyph-name="color-palette" d="M824.697 448c-45.475 0-85.289 39.849-85.289 85.189 0 45.423 39.815 85.185 85.289 85.185 45.486 0 85.285-39.763 85.285-85.185 0.003-45.34-39.803-85.189-85.285-85.189zM654.128 675.204c-45.486 0-85.289 39.77-85.289 85.192s39.803 85.189 85.289 85.189c45.475 0 85.28-39.77 85.28-85.189 0-45.423-39.805-85.192-85.28-85.192zM369.857 675.204c-45.559 0-85.285 39.77-85.285 85.192s39.726 85.189 85.285 85.189c45.475 0 85.289-39.77 85.289-85.189 0-45.423-39.815-85.192-85.289-85.192zM199.279 448c-45.55 0-85.28 39.849-85.28 85.189 0 45.423 39.726 85.185 85.28 85.185 45.486 0 85.285-39.763 85.285-85.185 0.003-45.34-39.797-85.189-85.285-85.189zM511.95 959.145c-284.266 0-511.733-227.197-511.733-511.149s227.467-511.145 511.733-511.145c45.559 0 85.285 39.849 85.285 85.192 0 22.797-5.659 39.849-22.652 56.812-11.504 17.058-22.823 34.118-22.823 56.744 0 45.508 39.815 85.189 85.289 85.189h102.354c159.257 0 284.275 124.962 284.275 284.027 0 249.922-227.383 454.329-511.73 454.329h0.001z" />
<glyph unicode="&#xe99d;" glyph-name="pen" horiz-adv-x="896" d="M837.778 806.966c27.52 29.461-14.766 76.389-14.766 76.389s-23.96 31.661-68.505 64.229c-44.588 32.551-78.902 0-78.902 0l-75.403-75.429 153.162-152.59c0 0 64.568 65.118 84.414 87.402v0zM717.281 691.738l-146.297 150.816-424.043-418.343 152.045-157.681 418.295 425.208zM262.396 245.983l-141.707 139.383-89.138-237.716 230.845 98.333zM89.696 33.739h731.93c26.51 0 48-21.49 48-48s-21.49-48-48-48h-731.93c-26.51 0-48 21.49-48 48s21.49 48 48 48z" />
<glyph unicode="&#xe9a2;" glyph-name="eraser" d="M548.337 944.2l226.42-130.723c52.103-30.082 69.955-96.706 39.873-148.81l-365.661-633.278 575.030-0.035v-93.97h-686.298c-20.405-1.17-41.39 3.421-60.435 14.417l-226.42 130.723c-52.103 30.082-69.955 96.706-39.873 148.81l388.553 672.994c30.082 52.103 96.706 69.955 148.81 39.873zM239.023 430.007l-113.843-197.181c-19.553-33.867-7.949-77.173 25.918-96.726v0l132.078-76.255c33.867-19.553 77.173-7.949 96.726 25.918v0l113.843 197.181-254.722 147.064z" />
<glyph unicode="&#xe9c5;" glyph-name="redo" d="M365.902 756.658h365.607v138.529l292.491-207.793-292.491-207.8v138.529h-365.607c-124.312 0-219.369-90.043-219.369-207.793s95.056-207.8 219.369-207.8h365.607v-138.529h-365.607c-197.433 0-365.612 152.385-365.612 346.328s160.865 346.328 365.612 346.328z" />
<glyph unicode="&#xe9c6;" glyph-name="undo" d="M658.098 756.658h-365.607v138.529l-292.491-207.793 292.491-207.8v138.529h365.607c124.312 0 219.369-90.043 219.369-207.793s-95.056-207.8-219.369-207.8h-365.607v-138.529h365.607c197.433 0 365.612 152.385 365.612 346.328s-160.865 346.328-365.612 346.328z" />
<glyph unicode="&#xe9dc;" glyph-name="cancel" d="M149.791 85.901c-199.731 199.752-199.72 523.595 0.025 723.333s523.588 199.738 723.333 0c199.745-199.738 199.756-523.581 0.025-723.333-95.923-95.933-226.028-149.828-361.691-149.828s-265.768 53.895-361.691 149.828v0zM253.111 705.89c-122.786-122.759-142.212-314.978-46.472-459.823l506.294 506.294c-144.844 95.741-337.063 76.314-459.823-46.472zM816.253 648.97l-506.221-506.221c144.829-95.696 336.998-76.269 459.744 46.477s142.173 314.915 46.477 459.744v0z" />
<glyph unicode="&#xe9e4;" glyph-name="save" d="M1022.504 620.092v17.102c0 0.733-4.031 24.432-6.108 32.372-4.869 10.58-10.847 20.612-17.835 29.929l-7.513 8.001-208.526 220.864c-22.675 20.484-52.27 31.615-82.824 31.151l-6.902 0.489h-508.060c-101.509-0.202-183.673-82.584-183.605-184.094v-655.751c0.033-101.515 82.212-183.858 183.728-184.094h654.163c101.515 0.236 183.694 82.579 183.728 184.094v499.937h-0.244zM184.003 861.784h505.067v-96.628c-0.033-58.013-46.983-105.072-104.996-105.24h-295.137c-58.013 0.168-104.962 47.227-104.996 105.24l0.061 96.628zM839.753 33.483h-354.934v251.098h-189.347v-251.098h-111.47v291.167c0 47.227 38.285 85.511 85.511 85.511h484.911c47.227 0 85.511-38.285 85.511-85.511v-291.044l-0.183-0.122z" />
<glyph unicode="&#xea56;" glyph-name="eraserRadius" d="M512 960c-282.77 0-512-229.23-512-512s229.23-512 512-512 512 229.23 512 512-229.23 512-512 512zM512 64c-212.078 0-384 171.922-384 384s171.922 384 384 384c212.078 0 384-171.922 384-384s-171.922-384-384-384z" />
<glyph unicode="&#xea57;" glyph-name="crop" d="M832 704l192 192-64 64-192-192h-448v192h-128v-192h-192v-128h192v-512h512v-192h128v192h192v128h-192v448zM320 640h320l-320-320v320zM384 256l320 320v-320h-320z" />
<glyph unicode="&#xea61;" glyph-name="input" d="M64 448h384v-128h-128v-384h-128v384h-128zM960 704h-251.75v-768h-136.5v768h-251.75v128h640z" />
</font>
</defs>
</svg>
